<?xml version="1.0" encoding="utf-8"?>
<svg xmlns="http://www.w3.org/2000/svg" viewBox="0 0 5333.3335 5333.3335" height="5333.3335" width="5333.3335" id="svg2" version="1.1">
  <g transform="matrix(1.3333333,0,0,-1.3333333,0,5333.3333)" id="g10">
    <g transform="scale(0.1)" id="g12">
      <g transform="matrix(1.054935, 0, 0, 1.204531, 2212.221469, 1152.190203)" id="g22" style="">
        <path id="path24" style="fill:#ed3b3b;fill-opacity:1;fill-rule:nonzero;stroke:none" d="m 16007,14329.5 c -168.2,-356.1 -423.7,-774.5 -800.2,-1262.3 -829.6,-1075.7 -1839.5,-1734.4 -2776.9,-2110.8 -1101.4,-442.5 -2103.7,-494.8 -2598.39,-375.4 -915.97,221.2 -336.87,1425.5 -1860.63,935.7 -1523.72,-489.8 -1436.79,318.1 -407.76,1147.2 8.05,6.5 16.1,13 24.57,19.4 1027.78,809.6 2481.61,816.6 3157.11,1068.3 681.1,253.6 1567.2,893.8 2655.2,1512.2 1088.2,618.5 2633.8,875.5 2633.8,875.5 0,0 266.2,-199.5 264.3,-722.3 -0.9,-270.4 -73.2,-627.1 -291.1,-1087.5"/>
      </g>
      <g transform="matrix(0.933189, 0, 0, 1.065524, 2212.221469, 1152.190569)" id="g26" style="">
        <path id="path28" style="fill:#c92f47;fill-opacity:1;fill-rule:nonzero;stroke:none" d="m 13099.7,12299.9 c -1821.8,0 -2463.1,1050.6 -2701.6,1193.7 -66,39.5 -172.1,54.8 -301.3,54.8 -221.22,0 -510.28,-44.8 -782.63,-89.7 -272.43,-44.8 -528.22,-89.7 -682.95,-89.7 -96.64,0 -153.85,17.5 -151.07,63.5 14.24,235.4 878.29,885.6 2609.25,964.5 1730.5,78.5 2852.4,1120.5 3344.9,1426.4 246.6,153.1 797.2,334 1285.7,476.6 -76.2,-69.7 -151.6,-141 -225.3,-213.2 -140.7,-77 -274.6,-162.2 -405.5,-249.6 -367.5,-247.2 -712.4,-514.2 -1071,-758.7 -357.5,-244.8 -728.1,-469.9 -1125.1,-636.6 -396.2,-166.6 -820.2,-268.3 -1251.4,-303.4 -197,-17.6 -395.2,-20.9 -594.2,-20.9 -58.8,0 -117.7,0.3 -176.6,0.7 -58.9,0.2 -117.8,0.5 -176.9,0.5 -120,0 -240.1,-1.2 -360.2,-6 -219.1,-8.6 -438.37,-30.8 -653.13,-75.4 -215.13,-42.7 -424.55,-109.8 -627.09,-191.3 205.38,74.3 416.28,133.8 631.31,168.7 214.67,36.8 432.41,51.1 650.01,52.1 9.6,0 19.3,0 29,0 168,0 336.2,-6.7 504.9,-13.5 168.7,-6.7 337.9,-13.5 507.6,-13.5 90.3,0 180.8,1.9 271.4,6.8 440.9,20.3 880.8,109.1 1296.4,266.9 415.5,157.6 803.9,375.6 1175.3,611.2 273.1,172.6 537.9,356.5 804.1,532.3 -574.8,-728.3 -893.3,-1524.4 -542.1,-2266.6 1.5,-3.4 3,-7.2 4.9,-10.6 63.3,-131.4 135.5,-245.2 215.3,-343.2 -476.5,-244.7 -945.2,-417.6 -1380,-535.2 -41.3,-1 -82,-1.6 -122,-1.6"/>
      </g>
      <g transform="matrix(1.028319, 0, 0, 1.174143, 2212.221469, 1152.190447)" id="g30" style="">
        <path id="path32" style="fill:#f8b1b1;fill-opacity:1;fill-rule:nonzero;stroke:none" d="m 8289.76,13147.3 c 621.63,345.7 1335.66,483.1 1932.04,597.9 339.4,65.3 632.6,121.7 859.2,206.1 462.6,172.2 1002.9,505.4 1628.4,891.3 354.3,218.5 720.6,444.4 1119.9,671.3 718.6,408.5 1650.3,661.9 2195,786.1 -69.6,-76.2 -140.8,-154.5 -213.3,-234.5 -350.4,-31.8 -910.5,-206 -1885.2,-691.4 -660.6,-329.1 -1452.4,-1171.1 -2772.9,-1615.9 -512.4,-172.6 -1741.45,-334.4 -2863.14,-610.9"/>
      </g>
      <g transform="matrix(1.070509, 0, 0, 1.222316, 2212.221469, 1152.190691)" id="g34" style="">
        <path id="path36" style="fill:#390075;fill-opacity:1;fill-rule:nonzero;stroke:none" d="m 8453.39,11624.5 c 439.83,0 612.31,-248.7 772.77,-563.2 111.78,-219.1 208.35,-408.3 499.89,-478.6 740.05,-178.6 3330.85,56.4 5132.55,2392.1 1401.6,1817 1027.5,2572.7 885.9,2756.5 -328.2,-62.2 -1566,-320.6 -2460.3,-828.9 -383.6,-218 -735.5,-435 -1075.8,-644.9 -600.8,-370.6 -1119.9,-690.7 -1564.2,-856.1 -217.7,-81.1 -499.3,-135.3 -825.27,-198 -709.59,-136.5 -1592.62,-306.4 -2265.41,-848.6 -559.43,-450.7 -734.98,-818.5 -677.43,-925.2 36.01,-66.8 276.77,-137.9 929.77,72 265.91,85.4 476.9,122.9 647.53,122.9 m 1786.01,-1411.8 c -240.23,-0.1 -439.93,22.7 -588.54,58.6 -434.71,104.9 -587.32,404.2 -709.99,644.5 -162.15,317.8 -269.2,527.6 -1036.99,280.8 -716.07,-230.2 -1156.62,-202.8 -1309.72,81.1 -168.45,312.3 115.06,808.2 758.4,1326.5 734.9,592.1 1661.33,770.5 2405.84,913.7 311.9,60.1 581.3,111.9 774.1,183.6 414.8,154.5 921.3,466.9 1507.9,828.7 342.6,211.3 696.9,429.9 1085.5,650.7 1084.6,616.4 2585.1,870.8 2648.4,881.4 43.3,7.1 87.4,-3.7 122.4,-29.9 25.7,-19.2 252.5,-200.5 311,-630.2 92.3,-678.6 -276.3,-1561 -1095.5,-2623 -1001.4,-1298.3 -2211.3,-1926.2 -3049.9,-2224.3 -711.7,-253 -1346.8,-342.2 -1822.9,-342.2"/>
      </g>
      <g transform="matrix(1.052886, 0, 0, 1.202193, 2212.221224, 1152.190447)" id="g38" style="">
        <path id="path40" style="fill:#390075;fill-opacity:1;fill-rule:nonzero;stroke:none" d="m 16225.1,16016 c -122.3,-159.4 -246.3,-308.6 -375.5,-457.6 -128.9,-148.2 -262,-293 -400.3,-433.4 -138.5,-140.3 -281.7,-276.6 -433.7,-404.8 -151.5,-128.6 -312.2,-249.3 -487.5,-353.5 -88.4,-51.2 -180.9,-97.9 -279.5,-135.5 l -74.9,-26.2 -64.5,-21.4 c -42.8,-15.8 -85.7,-31.7 -128.1,-50.5 -169.8,-72.9 -334.6,-167.3 -496.8,-267.6 -324.4,-202.1 -640.2,-429 -970,-637.4 -329.2,-208.8 -673.4,-402.1 -1041.7,-541.7 -368.3,-139.9 -758.2,-218.6 -1149,-236.6 -231.4,-12.4 -461.34,-3.2 -690.43,5.9 -158.11,6.4 -315.8,12.7 -473.25,12 -192.79,-0.9 -385.81,-13.6 -576.08,-46.2 -190.58,-30.9 -377.5,-83.7 -559.54,-149.5 179.51,72.2 365.13,131.7 555.8,169.6 190.34,39.4 384.67,59.1 578.84,66.8 158.92,6.3 317.75,5.5 476.1,4.8 229.01,-1.1 457.06,-2.3 683.16,17.9 382.2,31.1 758,121.3 1109.1,268.9 351.9,147.8 680.4,347.3 997.2,564.3 317.9,216.7 623.6,453.3 949.2,672.4 163.3,109.1 331.9,214.2 515.1,300.8 45.5,22.1 92.7,41.7 140.2,61 l 72.4,26.9 61.4,23.9 c 81.1,34.4 160.7,77.7 238.3,126.3 154.3,99.3 300.8,216.9 440.1,343.9 139.7,126.4 272.7,262.1 401.6,402 128.6,140.2 252.8,285.1 373,433.4 119.6,147.7 237.7,300.9 346,452.8 l 1.5,2 c 52.2,73.3 153.9,90.3 227.1,38.1 73.3,-52.3 90.3,-153.9 38.1,-227.1 -1,-1.4 -2.3,-3.3 -3.4,-4.7"/>
      </g>
      <g transform="matrix(1.733509, 0, 0, 1.979332, 2212.221469, 1152.189226)" id="g42" style="">
        <path id="path44" style="fill:#33aef1;fill-opacity:1;fill-rule:nonzero;stroke:none" d="m 16143.4,11661.8 c -3,-10.1 -6.1,-20.2 -9.6,-30 -2.6,-7.9 -5.2,-15.6 -8.3,-23 -2.1,-6.5 -4.6,-12.7 -7.2,-18.9 -4.1,-10.2 -8.4,-20.2 -12.7,-29.9 -3.8,-8.1 -7.4,-16.2 -11.5,-23.9 -6.7,-14 -13.8,-27.4 -21.5,-40.5 -4,-7.2 -8.3,-14.5 -12.5,-21.5 -5.8,-9.8 -12,-19.1 -18.2,-28.4 -6,-9.1 -12.1,-17.8 -18.6,-26.6 -6.3,-8.8 -12.8,-17.3 -19.4,-25.7 -16.1,-20.4 -32.9,-40 -50.3,-58.5 -5.1,-5.5 -10.1,-10.9 -15.4,-16 -10.3,-10.6 -20.9,-20.7 -31.7,-30.7 -5.2,-4.9 -10.7,-9.8 -16.2,-14.6 -9.6,-8.5 -19.5,-16.8 -29.3,-25 -3.3,-2.6 -6.5,-5.2 -9.8,-7.9 -20.1,-16 -40.6,-31.2 -61.1,-45.2 -4.8,-3.4 -9.9,-6.8 -14.7,-10 -2.4,-1.8 -5.1,-3.5 -7.5,-4.9 v -0.3 c -1.6,-0.8 -3,-1.9 -4.6,-2.8 -41.9,-27.5 -84,-50.8 -124.2,-70.9 -5.5,-2.9 -10.8,-5.6 -16.3,-7.9 -32.2,-15.7 -63,-29.1 -91.6,-40.4 -9.4,-3.7 -18.7,-7.4 -27.7,-10.7 -9.6,-3.7 -19,-7.1 -27.7,-10.2 -7.6,-2.7 -14.8,-5.1 -21.7,-7.4 -37.4,-12.3 -66.6,-20.1 -84.3,-24.7 -2.5,-0.5 -4.6,-1 -6.6,-1.5 -7.6,-1.9 -11.9,-2.7 -11.9,-2.7 l -1286.6,-1066.86 -1580.2,-1310.26 -448,1614.82 c 0,0 541.4,388.5 1166.4,834.8 246.4,175.9 505.8,360.9 750.2,534.2 119.3,84.9 235.1,167 344.1,244.3 12.1,8.4 24,17 35.8,25.4 137.3,97.1 262.6,185.3 369.4,259.9 12.9,9.1 25.3,17.9 37.4,26.3 72,50.2 134.4,93.5 184.6,127.9 6.2,4 12.1,8.3 18,12.2 l 0.5,0.5 c 9.7,6.4 18.8,12.6 27.4,18.6 15,10.1 28.4,18.9 39.9,26.6 4.6,3 8.9,6 12.9,8.6 12,7.9 21.6,13.8 28.5,18 212.5,126.3 1248.4,-184 1091.8,-714.3"/>
      </g>
      <g transform="matrix(1.733509, 0, 0, 1.979332, 2212.221469, 1152.189226)" id="g46" style="">
        <path id="path48" style="fill:#ed3b3b;fill-opacity:1;fill-rule:nonzero;stroke:none" d="m 16143.4,11661.8 c -3,-10.1 -6.1,-20.2 -9.6,-30 -2.6,-7.9 -5.2,-15.6 -8.3,-23 -2.1,-6.5 -4.6,-12.7 -7.2,-18.9 -4.1,-10.2 -8.4,-20.2 -12.7,-29.9 -3.8,-8.1 -7.4,-16.2 -11.5,-23.9 -6.7,-14 -13.8,-27.4 -21.5,-40.5 -4,-7.2 -8.3,-14.5 -12.5,-21.5 -5.8,-9.8 -12,-19.1 -18.2,-28.4 -6,-9.1 -12.1,-17.8 -18.6,-26.6 -6.3,-8.8 -12.8,-17.3 -19.4,-25.7 -16.1,-20.4 -32.9,-40 -50.3,-58.5 -5.1,-5.5 -10.1,-10.9 -15.4,-16 -10.3,-10.6 -20.9,-20.7 -31.7,-30.7 -5.2,-4.9 -10.7,-9.8 -16.2,-14.6 -9.6,-8.7 -19.5,-16.8 -29.3,-25 -3.3,-2.6 -6.5,-5.2 -9.8,-7.9 -20.1,-16 -40.6,-31.2 -61.1,-45.2 -4.8,-3.4 -9.9,-6.8 -14.7,-10 -2.4,-1.8 -5.1,-3.5 -7.5,-4.9 -1.6,-1.1 -3,-2.2 -4.6,-3.1 -41.9,-27.5 -84,-50.8 -124.2,-70.9 -5.5,-2.9 -10.8,-5.6 -16.3,-7.9 -32.2,-15.7 -63,-29.1 -91.6,-40.4 -9.6,-3.9 -18.9,-7.4 -27.7,-10.7 -9.6,-3.7 -19,-7.1 -27.7,-10.2 -7.6,-2.7 -14.8,-5.1 -21.7,-7.4 -37.4,-12.3 -66.6,-20.1 -84.3,-24.7 -2.5,-0.5 -4.6,-1 -6.6,-1.5 -7.6,-1.9 -11.9,-2.7 -11.9,-2.7 L 14064.7,9934.24 c -131.9,160.16 -212.8,328.26 -257.9,493.56 -167.5,609.3 146.3,1180 146.3,1180 119.3,84.9 235.1,167 344.1,244.3 12.1,8.4 24,17 35.8,25.4 137.3,97.1 262.6,185.3 369.4,259.9 12.9,9.1 25.3,17.9 37.4,26.3 72,50.2 134.4,93.5 184.6,127.9 6.2,4 12.1,8.3 18,12.2 l 0.5,0.5 c 9.7,6.4 18.8,12.6 27.4,18.6 15,10.1 28.4,18.9 39.9,26.6 4.6,3 8.9,6 12.9,8.6 12,7.9 21.6,13.8 28.5,18 212.5,126.3 1248.4,-184 1091.8,-714.3"/>
      </g>
      <g transform="matrix(1.723651, 0, 0, 1.968076, 2212.221469, 1152.190569)" id="g50" style="">
        <path id="path52" style="fill:#0f227a;fill-opacity:1;fill-rule:nonzero;stroke:none" d="m 14042.5,11665.7 c -21.9,-41.4 -304.3,-594.5 -144.8,-1175 47.6,-174.5 131.4,-336.6 249.1,-482.1 l 1286.8,1067.1 3.2,0.5 c 0.2,0 4.2,0.8 11.3,2.5 2.1,0.6 4.4,1.2 7.3,1.7 17.7,4.7 46.6,12.4 83.1,24.5 7,2.2 14.2,4.7 21.6,7.4 8.8,3 18,6.4 27.5,10.1 8.9,3.3 18.2,6.7 27.7,10.6 30.9,12.3 61.7,25.9 91.4,40.3 5.7,2.5 10.8,5.1 16.1,7.9 45.2,22.5 85.7,45.6 123.9,70.6 l 2.9,1.9 c 4.2,2.7 6.7,4.3 8.8,5.9 5,3.3 10,6.7 14.8,10.1 20.6,14.1 41,29.2 60.9,45 l 9.8,7.9 c 9.6,8 19.4,16 29,24.7 5.5,4.8 10.9,9.7 16.1,14.5 10.7,10 21.2,20 31.5,30.5 5.3,5.2 10.3,10.5 15.2,15.8 16.9,18 33.7,37.5 50,58.1 6.5,8.4 12.8,16.9 19.2,25.5 6.4,8.7 12.4,17.3 18.3,26.3 6.2,9.2 12.3,18.4 18,28 4.2,7.1 8.5,14.2 12.4,21.3 8,13.8 14.9,26.8 21.3,40.2 3,5.5 5.5,10.9 8,16.3 l 3.7,7.6 c 4,9.3 8.3,19.2 12.3,29.4 2.7,6.2 5,12.2 7.1,18.4 3.2,7.8 5.7,15.3 8.2,23 3.4,9.5 6.3,18.9 9.2,28.3 l 12.3,-2 -11.8,3.5 c 62.1,210.4 -73.7,370.3 -198.7,467.4 -275,213.8 -744.5,318 -881.2,236.8 -6.7,-4.1 -16.2,-10 -28.2,-17.9 -2.5,-1.6 -4.8,-3.1 -7.3,-4.8 l -45.7,-30.4 c -8.5,-6 -17.8,-12.3 -27.5,-18.8 -3.8,-2.5 -6.8,-4.7 -9.9,-6.8 l -8.8,-6 c -50.4,-34.5 -113,-77.9 -185.4,-128.4 -7.4,-5.1 -14.8,-10.4 -22.4,-15.7 l -15.2,-10.7 c -107.3,-75 -233.4,-163.7 -371.4,-261.4 l -13.3,-9.5 c -7.5,-5.4 -15.2,-10.9 -22.9,-16.2 l -30.9,-22 c -99.8,-70.7 -204.7,-145.1 -312.6,-221.9 m 101,-1692.17 -8,9.6 c -124.1,150.67 -212.2,319.17 -261.8,500.97 -167.8,610.6 145.1,1190.3 148.3,1196.1 l 3.7,4.1 c 108.7,77.4 214.5,152.4 315,223.6 l 31.1,22.1 c 7.7,5.3 15.2,10.7 22.6,16.1 l 13.4,9.5 c 138.1,97.7 264.2,186.4 371.6,261.4 l 15.1,10.7 c 7.6,5.4 15.1,10.7 22.5,15.8 72.5,50.5 135.2,94 185.7,128.6 l 8.5,5.8 c 3.3,2.3 6.6,4.6 9.8,6.6 10.1,6.9 19.1,13.1 27.7,19.1 l 45.9,30.5 c 2.7,1.8 5.3,3.6 7.7,5.1 12.1,7.9 21.8,13.9 28.8,18.3 142.9,84.9 627.8,-19.5 909.5,-238.5 187.7,-146 259.4,-316.8 207.1,-494 v -0.2 l -12,3.7 11.5,-5.2 c -3,-9.9 -6,-19.7 -9.5,-29.3 -2.5,-7.8 -5.3,-15.8 -8.4,-23.5 -2.1,-6.1 -4.6,-12.7 -7.4,-19.2 -4.1,-10.2 -8.4,-20.3 -12.8,-30.3 l -3.7,-7.7 c -2.7,-5.8 -5.4,-11.5 -8.3,-17.1 -6.5,-13.5 -13.7,-27.1 -21.8,-41.1 -4,-7.2 -8.4,-14.6 -12.8,-21.8 -5.8,-10 -12.2,-19.5 -18.6,-29.1 -6,-9.1 -12.3,-18.1 -18.9,-27.2 -6.6,-8.8 -13,-17.5 -19.8,-26.1 -16.8,-21.2 -34,-41.3 -51.3,-59.8 -5.2,-5.5 -10.5,-11.1 -15.9,-16.4 -10.3,-10.6 -21.1,-20.8 -32,-31.1 -5.4,-4.9 -10.9,-9.9 -16.6,-14.9 -9.8,-8.8 -19.8,-17.1 -29.8,-25.3 l -9.9,-8.1 c -20.4,-16.3 -41.3,-31.7 -62.3,-46 -4.7,-3.4 -10,-7 -14.9,-10.2 -2.4,-1.7 -5.3,-3.6 -8,-5.3 -2.1,-1.5 -3.6,-2.5 -5.3,-3.4 -37.9,-25 -79.2,-48.5 -125.1,-71.4 -5.7,-2.9 -11.2,-5.8 -16.9,-8.3 -29.9,-14.5 -61.2,-28.3 -92.6,-40.7 -9.7,-4 -19.2,-7.5 -28.2,-10.9 -9.6,-3.7 -19.1,-7.2 -28.1,-10.3 -7.6,-2.7 -14.9,-5.2 -22.1,-7.5 -37.1,-12.3 -66.4,-20.2 -85.4,-25.1 -3,-0.6 -4.8,-1.1 -6.6,-1.5 -4.2,-1.1 -7.5,-1.8 -9.7,-2.3 l -1301,-1078.87"/>
      </g>
      <g transform="matrix(1.71087, 0, 0, 1.953485, 2212.221469, 1152.190447)" id="g54" style="">
        <path id="path56" style="fill:#f8b1b1;fill-opacity:1;fill-rule:nonzero;stroke:none" d="m 16162.7,11641.3 c 21.5,109.6 19.3,222.5 -21.9,331.7 -109.2,288.8 -558.6,376.2 -941.7,412.8 50.5,34.4 85.7,57.8 102.9,67.9 16.5,9.9 48.4,15.1 91.2,15.1 160.4,0 473.4,-72.8 698,-247.4 151.7,-118 208.8,-244.7 169.8,-376.9 -22.6,-76.5 -56.8,-143.9 -98.3,-203.2"/>
      </g>
      <g transform="matrix(1.733544, 0, 0, 1.979372, 2212.221224, 1152.190203)" id="g58" style="">
        <path id="path60" style="fill:#390075;fill-opacity:1;fill-rule:nonzero;stroke:none" d="m 12150.1,10198.5 388.6,-1401.05 2749.1,2279.55 c 12.5,10.3 27.3,17.4 43.2,20.7 5.6,1.2 579.9,126.3 717.3,591.9 38.5,130.4 -17.9,255.5 -167.6,371.9 -280.9,218.4 -701.7,275.3 -778.9,229.3 -162.1,-96.3 -1969.1,-1387.5 -2951.7,-2092.3 m 334.1,-1673.6 c -9.9,0 -19.9,1.49 -29.6,4.55 -32,10.04 -56.7,35.6 -65.7,67.89 L 11941,10212.1 c -11.1,40 4,82.6 37.7,106.8 114.5,82.2 2808.3,2014.9 3022,2142 189.6,112.6 704.4,-12.3 1001.4,-243.2 214.1,-166.5 297.9,-374 235.8,-584.2 -154.7,-524 -713.9,-691.8 -841.8,-723.7 L 12547.3,8547.65 c -17.9,-14.89 -40.3,-22.75 -63.1,-22.75"/>
      </g>
      <g transform="matrix(1.679644, 0, 0, 1.917829, 2212.221469, 1152.190569)" id="g62" style="">
        <path id="path64" style="fill:#390075;fill-opacity:1;fill-rule:nonzero;stroke:none" d="m 15575.7,12193.2 c 54.1,7.7 107.2,7.5 160.2,4.2 53,-3.3 105.6,-11.3 157.9,-23.3 52.2,-12.1 104.1,-28.4 155.5,-51.1 25.7,-10.7 51.5,-24 76.7,-39 25.3,-15.6 50.8,-32.2 74.9,-54.9 24.3,-21.9 48.6,-47.8 67.4,-83.3 19,-34.4 31.7,-78.8 29.3,-123.4 -1.1,-10.7 -2.6,-21.5 -4.3,-32.1 -1.7,-11.2 -4.6,-17.3 -7,-26.1 l -7.8,-24.4 c -2.5,-8.1 -5.4,-16.2 -10,-24.5 -8.9,-16.2 -15.5,-32.7 -27.5,-47.9 l -17.9,-22.6 c -3.1,-3.7 -6,-7.4 -9.3,-11 l -10.9,-9.7 c -14.7,-13 -29.7,-25.5 -46.8,-34.1 -8.3,-4.6 -16.6,-9.8 -25.1,-13.5 l -25.7,-9.8 c -17.4,-7.2 -34.2,-9 -51.3,-13.1 -16.8,-2.3 -33.5,-4.3 -49.7,-5.1 -32.3,-1.1 -63.5,0.9 -93.5,5.5 -15,2.6 -29.9,5 -44.7,8.5 -15.3,3.4 -28.1,6.8 -46.7,12.8 l 122.1,97.4 c 2.1,-16.7 2.8,-27 3.5,-40 0.7,-12.4 1,-24.7 1.1,-36.9 0.2,-24.5 -1.1,-48.9 -3.4,-73.4 -5.1,-48.9 -14.6,-98.5 -32.5,-147.2 -18,-48.5 -43.6,-96.4 -78.9,-138 -34.7,-42.2 -78.9,-76.9 -126.4,-102.1 -47.3,-26.2 -98.5,-39.1 -147.6,-47.8 -49.7,-9.3 -98.3,-7.7 -145.5,-3.2 -93.7,12.4 -180.4,44.4 -255.9,97.9 -7.3,5.2 -8.9,15.2 -3.8,22.4 2.6,3.7 6.3,5.9 10.4,6.6 h 0.3 c 90.1,14.7 172.4,19.7 249.1,31 75.7,12.3 146.1,26.8 199.3,60.9 53.1,33.1 91.6,79.7 117.2,141.8 12.7,30.8 21.7,64.9 27.1,100.3 2.6,17.7 4.6,35.8 5.3,53.9 0.4,9 0.6,18 0.5,26.9 -0.1,8.2 -0.6,19.2 -0.9,23.5 l -0.4,5.3 c -3.6,50.2 34.3,93.9 84.5,97.5 13.1,0.9 26.3,-1.1 37.9,-5.3 5.6,-2.1 17.2,-6 26.6,-8.3 9.9,-2.9 20.1,-4.8 30.1,-6.6 20.2,-3.5 40,-4.8 58.5,-4.5 37.5,0.9 64.8,12.5 80.6,29 8.4,8.3 14.8,19.5 20.2,33.3 1.9,2.8 2.8,6.8 3.6,11.1 l 2.9,12.2 c 0.6,3.5 3,9.2 2.4,10.8 -0.2,1.9 -0.1,3.8 0.4,5.6 -1.1,6.6 -2.9,12.5 -8.6,22.4 -5.3,9.4 -15.7,21.8 -29.1,34 -12.9,12.1 -29.5,24.6 -46.6,36.9 -18,11.7 -36.4,23.9 -56.4,35.3 -39.7,22.8 -82.4,44.6 -126,66.2 -87.5,43.7 -179,86.7 -270.7,139.7 l -0.3,0.2 c -7.5,4.4 -10,13.9 -5.7,21.5 2.5,4.2 6.8,6.9 11.4,7.6"/>
      </g>
      <g transform="matrix(1.650937, 0, 0, 1.885052, 2212.221469, 1152.189104)" id="g66" style="">
        <path id="path68" style="fill:#390075;fill-opacity:1;fill-rule:nonzero;stroke:none" d="m 16160.3,12615.9 c 16.1,-28.1 29.4,-55.1 43,-80.9 l 38.3,-74.2 c 12.1,-23.8 25.2,-45.9 34.7,-68.2 9.1,-22.6 18.1,-43.4 19.7,-69 l 0.9,-14.9 c 3.1,-51.5 -36.1,-95.7 -87.5,-98.8 -29.5,-1.8 -57,10.8 -75.3,31.1 -23.3,26.2 -37.7,57.9 -45.5,90.2 -8.3,32.4 -9.8,65.9 -8.2,98.6 1.4,32.7 6.7,65 15,96.5 9.1,31.4 20.4,61.8 38.9,91.2 4.4,6.9 13.5,9 20.4,4.6 2.1,-1.3 3.7,-3.1 4.9,-5 l 0.7,-1.2"/>
      </g>
      <g transform="matrix(1.507592, 0, 0, 1.721379, 2212.221224, 1152.190935)" id="g70" style="">
        <path id="path72" style="fill:#390075;fill-opacity:1;fill-rule:nonzero;stroke:none" d="m 16172.4,11309.2 c -32.9,0 -65.4,14.2 -87.9,41.5 -751.5,912.6 -165.5,2005.4 -140.1,2051.6 30.2,54.9 99.3,75 154.4,44.8 55,-30.2 75.1,-99.2 45,-154.2 -22.3,-40.7 -536.2,-1005.4 116.3,-1797.6 39.9,-48.5 33,-120.2 -15.5,-160.1 -21.2,-17.4 -46.8,-26 -72.2,-26"/>
      </g>
      <g transform="matrix(1.481251, 0, 0, 1.691302, 2212.221469, 1152.191057)" id="g74" style="">
        <path id="path76" style="fill:#348bd8;fill-opacity:1;fill-rule:nonzero;stroke:none" d="m 15488.6,10971.1 c -14.2,226.9 -56.2,442.5 -126.4,644.5 171.6,181.9 348.7,414.9 479.2,696.3 60.9,-41.7 124.6,-70 189.6,-87.4 46.8,-192.4 131,-389.5 269,-580.7 l -811.4,-672.7"/>
      </g>
      <g transform="matrix(1.48768, 0, 0, 1.698643, 2212.221224, 1152.190569)" id="g78" style="">
        <path id="path80" style="fill:#390075;fill-opacity:1;fill-rule:nonzero;stroke:none" d="m 15426.9,10778.2 c -0.5,49 -2.3,97.4 -5.3,145.4 l 807.9,669.9 c 22,-30.5 45.4,-60.8 70.2,-91 0.1,-0.1 0.2,-0.2 0.3,-0.4 l -873.1,-723.9"/>
      </g>
      <g transform="matrix(1.678546, 0, 0, 1.916577, 2212.221469, 1152.190569)" id="g82" style="">
        <path id="path84" style="fill:#c92f47;fill-opacity:1;fill-rule:nonzero;stroke:none" d="m 14541.8,10406 c -84.4,119.7 -141.5,242.6 -178.1,364.2 344.7,28.9 665.6,293 665.6,293 -211.1,83.6 -40.5,339.8 -40.5,339.8 14.8,-0.5 29.2,-0.8 43.3,-0.8 572,0 599,428.1 677.9,462.5 13.4,5.8 36,8.2 64.3,8.2 92.1,0 245.2,-25.5 343.4,-43.8 -0.6,-2.4 -1.8,-6 -2.3,-8.4 l -2.9,-12.2 c -0.8,-4.3 -1.8,-8.3 -3.6,-11.1 -5.5,-13.9 -11.8,-25 -20.2,-33.3 -15.8,-16.6 -43.1,-28.2 -80.7,-29.1 -1.6,0 -3.3,0 -5,0 -17,0 -35.1,1.4 -53.5,4.5 -10,1.8 -20.2,3.8 -30.1,6.7 -9.4,2.2 -21.1,6.2 -26.6,8.2 -9.8,3.5 -20.6,5.6 -31.7,5.6 -2.1,0 -4.2,-0.1 -6.2,-0.2 -50.3,-3.6 -88.2,-47.4 -84.6,-97.7 l 0.3,-5.2 c 0.4,-4.4 0.9,-15.3 1,-23.5 0.1,-8.9 -0.1,-17.9 -0.5,-27 -0.8,-18 -2.7,-36.1 -5.4,-53.9 -5.4,-35.4 -14.4,-69.5 -27.1,-100.3 -25.6,-62.1 -64.1,-108.8 -117.2,-141.9 -53.3,-34.2 -123.8,-48.6 -199.5,-61 -76.7,-11.3 -159.1,-16.3 -249.2,-31 h -0.3 c -4.1,-0.7 -7.9,-2.9 -10.5,-6.6 -5.1,-7.2 -3.4,-17.2 3.9,-22.4 63.4,-45 134.8,-74.8 211.5,-90.5 l -835.5,-692.8 m 1406.9,1089.7 c 1.7,11.4 3.1,22.8 4.4,34.2 0.8,9.2 1.5,18.4 2.2,27.6 13.6,-1.2 27.6,-1.8 41.8,-1.8 5.8,0 11.7,0.1 17.6,0.3 16.3,0.8 33,2.8 49.7,5.1 17.2,4.1 33.9,6 51.4,13.2 l 25.7,9.8 c 8.5,3.6 16.8,8.9 25.1,13.5 17.1,8.6 32.1,21.1 46.8,34.1 l 11,9.7 c 3.2,3.5 6.2,7.3 9.3,10.9 l 17.9,22.7 c 12,15.2 18.6,31.7 27.5,48 2.5,4.4 4.5,8.8 6.1,13.2 7.6,-16.1 12.3,-33.5 14.8,-51.8 -123.4,-96.9 -258.3,-155.9 -351.3,-188.7"/>
      </g>
      <g transform="matrix(1.67912, 0, 0, 1.917233, 2212.221224, 1152.190325)" id="g86" style="">
        <path id="path88" style="fill:#390075;fill-opacity:1;fill-rule:nonzero;stroke:none" d="m 14598.8,10321.2 c -22.1,26.8 -42.7,54 -61.9,81.2 l 835.2,692.7 c 14.7,-3 29.5,-5.5 44.5,-7.5 22.3,-2.1 44.9,-3.6 67.7,-3.6 11.9,0 24,0.4 36.1,1.3 l -921.6,-764.1 m 1314.8,1053.3 c 0.5,1.4 1,2.8 1.5,4.3 13.8,37.3 22.6,75.3 28.2,113 92.9,32.8 227.9,91.8 351.2,188.6 5.5,-42.1 -1.4,-89.2 -15.8,-137.7 v -0.2 c -1.7,-0.9 -3.1,-2 -4.7,-2.9 -43.4,-28.4 -86.8,-52.5 -128.3,-73.2 -5.7,-3 -11.1,-5.8 -16.8,-8.2 -33.3,-16.2 -65.1,-30 -94.6,-41.7 -9.9,-4 -19.6,-7.6 -28.6,-11 -10,-3.8 -19.6,-7.4 -28.6,-10.6 -7.8,-2.7 -15.2,-5.3 -22.4,-7.6 -15.1,-5 -28.9,-9.2 -41.1,-12.8"/>
      </g>
      <g transform="matrix(1.67703, 0, 0, 1.914844, 2212.221224, 1152.190325)" id="g90" style="">
        <path id="path92" style="fill:#390075;fill-opacity:1;fill-rule:nonzero;stroke:none" d="m 15503.6,11097.8 c -22.9,0 -45.5,1.5 -67.8,3.6 -15,2 -29.9,4.5 -44.5,7.5 -76.9,15.7 -148.3,45.5 -211.8,90.6 -7.3,5.1 -8.9,15.1 -3.8,22.4 2.6,3.6 6.4,5.8 10.5,6.5 l 0.3,0.1 c 90.1,14.7 172.6,19.7 249.4,31 75.8,12.4 146.3,26.9 199.6,61 53.2,33.2 91.8,79.9 117.4,142 12.7,30.9 21.7,65.1 27.1,100.5 2.7,17.8 4.6,35.9 5.4,54 0.4,9 0.6,18 0.5,26.9 -0.1,8.2 -0.7,19.2 -1,23.6 l -0.3,5.2 c -3.6,50.4 34.3,94.1 84.6,97.7 2.1,0.1 4.2,0.2 6.3,0.2 11,0 21.9,-2 31.7,-5.5 5.5,-2.1 17.2,-6 26.6,-8.3 9.9,-2.9 20.1,-4.9 30.2,-6.7 18.4,-3.1 36.5,-4.5 53.6,-4.5 1.6,0 3.3,0.1 4.9,0.1 37.6,0.9 64.9,12.5 80.8,29 8.4,8.4 14.7,19.5 20.2,33.4 1.8,2.8 2.8,6.8 3.6,11.1 l 2.9,12.2 c 0.5,2.4 1.7,6 2.3,8.5 55,-10.3 92.8,-18.3 92.8,-18.3 36.6,-18.9 60.7,-44.5 74.9,-74.8 -1.7,-4.4 -3.7,-8.8 -6.2,-13.2 -8.9,-16.3 -15.4,-32.8 -27.5,-48 l -17.9,-22.7 c -3.1,-3.7 -6.1,-7.4 -9.3,-10.9 l -11,-9.8 c -14.7,-13 -29.7,-25.5 -46.8,-34.1 -8.4,-4.6 -16.6,-9.9 -25.2,-13.5 l -25.7,-9.8 c -17.5,-7.3 -34.2,-9.1 -51.4,-13.2 -16.8,-2.3 -33.5,-4.3 -49.7,-5.1 -6,-0.2 -11.9,-0.3 -17.7,-0.3 -14.2,0 -28.2,0.6 -41.9,1.8 -0.6,-9.2 -1.3,-18.4 -2.2,-27.6 -1.2,-11.5 -2.6,-22.9 -4.3,-34.3 -5.7,-37.8 -14.5,-75.8 -28.2,-113.2 -0.6,-1.4 -1.1,-2.8 -1.6,-4.3 -19.2,-5.6 -34.8,-9.8 -45.9,-12.6 -2.6,-0.6 -4.8,-1.1 -6.9,-1.6 -7.9,-2 -12.3,-2.8 -12.3,-2.8 l -328.6,-272.5 c -12.1,-0.9 -24.2,-1.3 -36.1,-1.3"/>
      </g>
      <g transform="matrix(1.503871, 0, 0, 1.717131, 2212.221469, 1152.190813)" id="g94" style="">
        <path id="path96" style="fill:#390075;fill-opacity:1;fill-rule:nonzero;stroke:none" d="m 16124.5,11378.3 c -0.1,0.1 -0.2,0.3 -0.3,0.4 -24.5,29.8 -47.7,59.8 -69.5,89.9 -135.8,188.3 -218.8,382.4 -264.9,572 41.4,-11.1 83.2,-17.7 125.2,-20.6 16.7,-1.1 33.4,-1.7 50.1,-1.7 22.3,0 44.7,1 67,2.9 40.8,-135.8 104.5,-273 198.7,-406.6 21.4,-30.4 44.5,-60.8 69.2,-90.7 l -87.7,-72.8 -87.8,-72.8"/>
      </g>
      <g transform="matrix(1.438624, 0, 0, 1.642629, 2212.221469, 1152.190813)" id="g98" style="">
        <path id="path100" style="fill:#33aef1;fill-opacity:1;fill-rule:nonzero;stroke:none" d="m 15567.8,9781.6 c -71.7,-188.23 -159,-383.78 -263.5,-586.48 -77.3,-150.21 -169.1,-298.81 -273.2,-445.56 -1068.4,-1502.45 -3445.7,-2783.43 -5087.44,-3234.54 -861.15,-236.6 -1519.79,-244.88 -1680.48,63.1 -94.92,181.91 -33.78,401.83 116.72,633.43 186.08,287.13 510.09,591.42 844.77,861.34 63.64,51.3 127.75,101.59 191.38,149.91 253.35,193.58 499.13,361.25 681.55,480.65 183.2,120.24 302.6,191.57 302.6,191.57 0,0 -794.85,1523.78 702.9,3190.48 1497.7,1666.6 2076.2,2233.6 3075.3,2126 98.3,-10.5 198.6,-31.5 298.6,-62.7 922.8,-287.5 1823,-1445 1090.8,-3367.2"/>
      </g>
      <g transform="matrix(1.393613, 0, 0, 1.591237, 2212.221469, 1152.190203)" id="g102" style="">
        <path id="path104" style="fill:#addff9;fill-opacity:1;fill-rule:nonzero;stroke:none" d="m 15939.4,10101.8 -63.3,55.2 c 183.9,770.6 182.2,1371.1 77,1848.1 53.6,41.7 114,91.4 178,148.8 168.9,-587.7 103.1,-1291.8 -191.7,-2052.1"/>
      </g>
      <g transform="matrix(1.359918, 0, 0, 1.552765, 2212.221469, 1152.190813)" id="g106" style="">
        <path id="path108" style="fill:#fcd245;fill-opacity:1;fill-rule:nonzero;stroke:none" d="m 15791,10689.1 -641.5,-161.7 -641.5,-161.8 -237.9,-631.78 c 606.3,-698.76 1263,-727.89 1263,-727.89 0,0 564.4,336.97 766.9,1239.67 l -509,443.5"/>
      </g>
      <g transform="matrix(1.321001, 0, 0, 1.50833, 2212.221469, 1152.190813)" id="g110" style="">
        <path id="path112" style="fill:#ed3b3b;fill-opacity:1;fill-rule:nonzero;stroke:none" d="m 16031.6,10609.2 -367.1,-92.6 -367,-92.6 -159.1,-270.6 c 346.9,-399.85 722.7,-416.52 722.7,-416.52 0,0 323,192.78 438.9,709.32 l -268.4,163"/>
      </g>
      <g transform="matrix(1.322399, 0, 0, 1.509924, 2212.221469, 1152.190447)" id="g114" style="">
        <path id="path116" style="fill:#feedb5;fill-opacity:1;fill-rule:nonzero;stroke:none" d="m 14957.7,10460.4 41.4,110.2 1212.1,305.6 88.8,-77.4 -1342.3,-338.4"/>
      </g>
      <g transform="matrix(1.350369, 0, 0, 1.541861, 2212.221224, 1152.189959)" id="g118" style="">
        <path id="path120" style="fill:#d5a84f;fill-opacity:1;fill-rule:nonzero;stroke:none" d="m 15396,9225.72 c -224.9,69.51 -570.1,230.1 -905.9,599.03 l 51.6,137.11 c 505.7,-485.53 995,-518.35 995,-518.35 0,0 471.2,336.94 640.4,944.59 l 122.9,-107 c -24,-95.9 -52.2,-184.9 -83.4,-267.1 -205.2,-219.91 -470.6,-487.21 -820.6,-788.28"/>
      </g>
      <g transform="matrix(1.368986, 0, 0, 1.56312, 2212.221469, 1152.190203)" id="g122" style="">
        <path id="path124" style="fill:#390075;fill-opacity:1;fill-rule:nonzero;stroke:none" d="m 14293,9691.15 c 481.5,-528.84 982.1,-623.63 1110.4,-639.6 104.7,75.2 502.4,399.35 674.9,1089.75 l -418.7,364.8 -1170.8,-295.2 -195.8,-519.75 m 1137.2,-847.1 c -1.5,0 -3,0.06 -4.5,0.12 -28.5,1.25 -703.4,39.07 -1327.3,758.26 -24.6,28.3 -31.7,67.87 -18.5,103 l 236.4,627.67 c 11.8,31.3 38.2,54.9 70.7,63 l 1274.4,321.4 c 32.4,8.2 66.9,0 92.2,-22.1 l 505.6,-440.5 c 28.3,-24.7 40.8,-62.9 32.6,-99.5 -208.4,-928.97 -784.8,-1282.3 -809.2,-1296.89 -15.9,-9.46 -34,-14.46 -52.4,-14.46"/>
      </g>
      <g transform="matrix(0.901972, 0, 0, 1.029879, 2212.221224, 1152.190569)" id="g126" style="">
        <path id="path128" style="fill:#348bd8;fill-opacity:1;fill-rule:nonzero;stroke:none" d="m 15098.7,10630.5 c -36.5,222.7 -58.1,448.8 -70.2,657.7 392.6,305.1 782.9,575.8 1086.1,777 56.1,-71.5 117.7,-142.7 185.4,-213 -305.1,-217.3 -879.7,-672.6 -1201.3,-1221.7"/>
      </g>
      <g transform="matrix(1.422894, 0, 0, 1.624671, 2212.221224, 1152.190813)" id="g130" style="">
        <path id="path132" style="fill:#390075;fill-opacity:1;fill-rule:nonzero;stroke:none" d="m 14109.7,13249.7 c -841.3,0 -1424.5,-598.1 -2794.3,-2122.2 -603.4,-671.6 -903.7,-1394.77 -892.5,-2149.6 8.3,-563.92 197.3,-936.39 199.2,-940.13 29.2,-56.51 9.5,-126.27 -45.1,-158.92 -6.1,-3.55 -609.87,-365.91 -1174.75,-821.58 -749.41,-604.46 -1083.57,-1088.14 -940.92,-1361.82 119.82,-229.53 732.3,-230.79 1560.37,-3.26 944.6,259.52 2077.2,780.02 3029.5,1392.31 782.4,503.02 1819.1,1304.72 2315.2,2267.45 v 0 c 586.6,1138.25 682.6,2186.75 270.5,2952.35 -333.7,619.9 -897.9,888.6 -1314.7,933.5 -72.9,7.8 -143.6,11.9 -212.5,11.9 M 8985.61,5282.01 c -331.87,0 -619.76,75.6 -737.9,301.99 -207.41,397.83 130.12,956.58 1003.27,1660.81 447.24,360.78 917.92,664.1 1111.32,784.89 -63.7,158.37 -171.5,489.28 -180.2,931.22 -11,565.25 145.6,1427.88 954.1,2327.58 1477.3,1643.9 2120.4,2306.1 3211.8,2188.9 609.6,-65.6 1184.8,-471.4 1501,-1058.8 451,-837.8 355.7,-1966.1 -268.4,-3177.08 -520.6,-1010.13 -1592,-1840.75 -2399.1,-2359.67 -971.7,-624.77 -2129.1,-1156.4 -3096,-1422.07 -305.29,-83.86 -729.88,-177.77 -1099.89,-177.77"/>
      </g>
      <g transform="matrix(0.87762, 0, 0, 1.002072, 2212.221469, 1152.190447)" id="g134" style="">
        <path id="path136" style="fill:#ed3b3b;fill-opacity:1;fill-rule:nonzero;stroke:none" d="m 16300,9040.42 c -1411.6,-387.86 -2491.3,-401.43 -2754.7,103.43 -348.1,667.58 585.3,1651.15 1576.1,2450.25 -16.6,-664.7 96.4,-1992.76 1178.6,-2553.68"/>
      </g>
      <g transform="matrix(0.881203, 0, 0, 1.006163, 2212.221469, 1152.188982)" id="g138" style="">
        <path id="path140" style="fill:#0f227a;fill-opacity:1;fill-rule:nonzero;stroke:none" d="m 15034.5,11495.1 c -894.7,-727.6 -1866.2,-1718.64 -1522.7,-2377.28 239.4,-459.03 1206.1,-497.36 2656.6,-106.7 -999.9,557.66 -1143.8,1768.88 -1133.9,2483.98 m -522.9,-2797.98 c -543.2,0 -904.8,133.36 -1043,398.23 -292.1,560.2 238.1,1391.45 1576,2470.55 l 40.8,33 -1.2,-52.6 c -17.7,-707.7 109.7,-1976.35 1160.6,-2521.08 l 55.2,-28.6 -59.9,-16.44 c -687.8,-189 -1272.3,-283.06 -1728.5,-283.06"/>
      </g>
      <path id="path142" style="fill: rgb(248, 177, 177); fill-opacity: 1; fill-rule: nonzero; stroke: none;" d="M 14388.8 11018.2 C 14363.9 11052.9 14342.2 11091.2 14324.4 11133.1 C 14500.6 11493.8 14841.9 11925.5 15336.9 12409.3 C 15339.4 12351.9 15343.1 12292.9 15347.8 12232.6 C 14951.3 11838.2 14594.2 11415.8 14388.8 11018.2"/>
      <path id="path144" style="fill: rgb(201, 47, 71); fill-opacity: 1; fill-rule: nonzero; stroke: none;" d="M 14988.1 10097.1 C 14589.6 10097.1 14323.2 10196.4 14232.8 10394 C 14223.7 10414.1 14215.9 10434.7 14209.6 10455.9 C 14223.7 10633.2 14288 10822.8 14388.8 11018.2 C 14522.8 10833 14756.1 10749.4 15065.1 10749.4 C 15254.5 10749.4 15472.3 10780.7 15713.1 10839.4 C 15751.2 10749.8 15801.7 10671 15864.1 10602.8 C 15946.3 10486.9 16040.5 10378.5 16148.7 10280.4 C 15694.5 10158.3 15300.6 10097.1 14988.1 10097.1"/>
      <path id="path146" style="fill: rgb(210, 142, 165); fill-opacity: 1; fill-rule: nonzero; stroke: none;" d="M 14209.6 10455.9 C 14153.8 10637.5 14193.8 10865.7 14324.4 11133.1 C 14342.2 11091.2 14363.9 11052.9 14388.8 11018.2 C 14288 10822.8 14223.7 10633.2 14209.6 10455.9"/>
      <g transform="matrix(1.290211, 0, 0, 1.473172, 2212.221469, 1152.190447)" id="g148" style="">
        <path id="path150" style="fill:#348bd8;fill-opacity:1;fill-rule:nonzero;stroke:none" d="m 14201.4,7692.12 c 55.9,87.63 106,180.31 146.6,279.1 55.6,135 92,282.82 96.9,436.75 0.4,11.03 0.6,22.13 0.6,33.29 598.9,373.64 1082.2,728.81 1474.7,1051.69 168.7,-65.1 303.6,-91.41 379.8,-101.91 -575.7,-650.62 -1308.5,-1193.41 -1906.7,-1578.01 -63.3,-40.66 -127.3,-80.98 -191.9,-120.91"/>
      </g>
      <g transform="matrix(1.343459, 0, 0, 1.533971, 2212.221469, 1152.190447)" id="g152" style="">
        <path id="path154" style="fill:#b68657;fill-opacity:1;fill-rule:nonzero;stroke:none" d="m 15696.1,9223.53 c -40.8,5.04 -118.4,17.93 -220.9,49.64 351.8,302.62 618.5,571.3 824.8,792.33 -197.4,-520.78 -511.8,-775.87 -603.9,-841.97"/>
      </g>
      <g transform="matrix(1.35264, 0, 0, 1.544455, 2212.221469, 1152.190935)" id="g156" style="">
        <path id="path158" style="fill:#390075;fill-opacity:1;fill-rule:nonzero;stroke:none" d="m 15547.7,8957.63 c -72.7,10.01 -201.3,35.11 -362.3,97.21 64.1,52.66 125.6,104.56 184.8,155.38 101.7,-31.49 178.9,-44.29 219.4,-49.3 91.4,65.65 403.7,319.01 599.8,836.24 38.9,41.74 75.8,81.84 110.6,120.14 -42,-92.6 -87.2,-185.79 -135.5,-279.64 v 0 c -160.1,-310.71 -373.8,-605.45 -616.8,-880.03"/>
      </g>
      <g transform="matrix(1.374, 0, 0, 1.568843, 2212.221469, 1152.190203)" id="g160" style="">
        <path id="path162" style="fill:#390075;fill-opacity:1;fill-rule:nonzero;stroke:none" d="m 10516.4,5804.09 c -2.9,10.04 -7.2,19.65 -12.7,28.45 17.1,-0.5 34.4,-0.75 51.8,-0.75 18.9,0 38,0.25 57.2,0.87 -32.4,-9.85 -64.4,-19.34 -96.3,-28.57 m 2621.1,1154.38 c 48.2,56.08 94.3,114.42 137.7,175.3 20.7,29.14 40.8,58.89 60.2,89.28 60.7,37.49 120.8,75.36 180.2,113.54 561.7,361.15 1249.8,870.84 1790.4,1481.78 239.2,270.31 449.6,560.47 607.1,866.34 v 0 c 47.6,92.4 92.1,184.16 133.5,275.31 99.9,109.78 182.9,204.28 253.4,281.58 -75.1,-197 -166.5,-401.8 -275.9,-614.03 -519.5,-1007.96 -1656,-1949.55 -2886.6,-2669.1"/>
      </g>
      <g transform="matrix(0.887161, 0, 0, 1.012964, 2212.221469, 1152.190691)" id="g164" style="">
        <path id="path166" style="fill:#390075;fill-opacity:1;fill-rule:nonzero;stroke:none" d="M 14794.1,11113 C 13773.7,10239.8 13333,9538.82 13549.5,9123.64 c 181.9,-348.51 995.7,-386.67 2159.4,-112.27 -692.4,549.87 -881.2,1436.43 -914.8,2101.63 m -384.5,-2618.06 c -523.3,0 -975.4,118.45 -1159.9,472.28 -326.7,626.38 212.7,1512.48 1602.8,2633.78 51.2,41.2 122,49.2 181,20 59,-29.2 95.9,-90 94.2,-155.9 -16.6,-669.1 100.9,-1866.96 1074.7,-2371.8 61.8,-32.07 97.6,-98.65 90.4,-167.92 -7.3,-69.18 -56.3,-126.86 -123.4,-145.32 -488.6,-134.2 -1169.4,-285.12 -1759.8,-285.12"/>
      </g>
      <g transform="matrix(1.689124, 0, 0, 1.928654, 2212.221469, 1152.190325)" id="g168" style="">
        <path id="path170" style="fill:#ffd5b0;fill-opacity:1;fill-rule:nonzero;stroke:none" d="m 13842.3,11001.5 -0.1,-0.3 C 13577.9,10269 12901,9866.58 12901,9866.58 c 0,0 -375.2,-878.32 -1748.4,-832.65 -1373.15,45.73 -1144.7,1220.57 -1144.7,1220.57 -1075,-267.14 -1157.42,864.6 -1157.42,864.6 -55.31,36 -107.33,72 -155.79,107.9 -1176.66,863.9 -425.41,1622.4 -257.13,1770.1 19.18,17.1 30.85,26.1 30.85,26.1 0,0 -21.92,49.8 -47.7,137.3 -45.83,155.5 -103.58,429.7 -71.5,754.2 25.42,262.1 109.76,557.2 306.56,849.2 577.04,856.6 2308.83,823.4 2857.63,943 548.7,119.5 749,557.3 1057.1,575.2 308.2,17.9 606.3,-294.9 709.6,-995 47,-318 -11.5,-587.8 -89.4,-787.4 -18,-47.1 -37.5,-90.2 -56.7,-129.1 -79.5,-160.2 -158.1,-250.2 -158.1,-250.2 0,0 59.7,-92.5 149.5,-247.4 282.8,-487.4 864.1,-1594 817.9,-2383.2 -10.2,-176 -47,-339.2 -101,-488.3"/>
      </g>
      <g transform="matrix(1.690291, 0, 0, 1.929986, 2212.221224, 1152.190081)" id="g172" style="">
        <path id="path174" style="fill:#390075;fill-opacity:1;fill-rule:nonzero;stroke:none" d="m 10017.2,10264.5 -3.7,-19.5 c -0.9,-4.7 -87.71,-472.66 190.1,-821.15 191.3,-240.02 508.2,-369.08 941.7,-383.48 1346.1,-45.34 1731.4,815.69 1735.1,824.42 l 1.6,3.8 3.6,2.08 c 6.7,4 674.8,407.83 934.6,1125.83 l 0.6,1.7 c 56.9,157 90.6,320 100.2,484.4 46.5,794.3 -554.9,1925.2 -815.7,2374.5 -88.4,152.7 -148.4,245.7 -149,246.6 l -5.2,8 6.3,7.2 c 0.8,0.9 78.5,90.9 156.2,247.4 21.6,43.7 40,85.6 56.2,127.9 98.1,251.4 127.9,514 88.6,780.4 -92.4,626.3 -359.7,1002.2 -695.8,983.6 -136.9,-7.9 -254.9,-103.8 -391.6,-214.8 -169.9,-137.9 -362.6,-294.3 -662.9,-359.8 -119.3,-26 -295.6,-45 -499.7,-66.9 -756.4,-81.3 -1899.57,-204.2 -2348.12,-870.1 -172.47,-255.8 -274.8,-539.4 -304.17,-842.8 -31.13,-314.2 21.41,-580.7 70.9,-748.8 25.25,-85.5 46.96,-135.2 47.16,-135.7 l 4.01,-9.1 -7.86,-6.1 c -0.26,-0.2 -11.56,-8.9 -30.18,-25.4 -95.13,-83.6 -403.92,-388 -385.91,-799.5 14.3,-328 230.28,-647.6 641.96,-949.8 47.21,-34.9 99.39,-71 155.13,-107.4 l 5.22,-3.4 0.5,-6.3 c 0.36,-5 40.93,-507.9 382.47,-755.5 194.79,-141 449.91,-173.7 758.45,-97.1 l 19.24,4.8 M 11246,9013.34 c -33.2,0 -67.1,0.56 -101.6,1.67 -441.3,14.71 -764.6,147.01 -960.8,393.22 -252.53,317.05 -211.41,729.17 -198.12,822.37 -307.87,-72.6 -563.86,-37.1 -760.98,105.8 -329.93,239.2 -386.32,707.8 -392.2,767.8 -54.21,35.4 -105.03,70.7 -151.12,104.8 -418.12,307 -637.6,633 -652.31,969.1 -18.46,422.8 297.27,734.2 394.49,819.6 10.19,9.1 18.36,15.9 23.83,20.4 -7.4,18.1 -24.74,62.8 -44.47,129.7 -50.21,170.3 -103.4,440.2 -71.86,758.5 29.82,307.6 133.57,595.1 308.38,854.4 455.19,675.7 1605.36,799.4 2366.46,881.2 203.4,21.9 379,40.8 497,66.5 294.5,64.1 484.6,218.5 652.3,354.7 140.1,113.8 261,212 406.1,220.4 275.3,16.5 609.4,-239.6 722.4,-1005.2 39.9,-270.8 9.6,-537.7 -90.1,-793.2 -16.4,-43 -35.1,-85.6 -57.1,-130.1 -67.4,-135.9 -133.5,-220.8 -153.7,-245.4 16.3,-25.6 70.5,-111.9 144.7,-239.8 261.8,-451.3 865.9,-1587.4 819.1,-2388.7 -9.7,-166.3 -43.8,-331.2 -101.3,-490 l -0.5,-1.8 c -252.9,-700.7 -889.8,-1105.75 -942.6,-1138.31 -28.8,-61.71 -417.6,-837.65 -1656,-837.65"/>
      </g>
      <g transform="matrix(1.422387, 0, 0, 1.624094, 2212.221224, 1152.190203)" id="g176" style="">
        <path id="path178" style="fill:#deb3a2;fill-opacity:1;fill-rule:nonzero;stroke:none" d="m 11744.5,15332.1 c 14.8,49.2 40.3,97.9 78.2,147.2 158.4,205.8 368.4,233.1 828.4,275.2 328,30.1 736.2,67.4 1283.1,204.7 431.8,108.2 756.3,229.3 995.5,340.8 -387.2,-316.1 -1123.2,-668.4 -2511.4,-776.4 -257.7,-20.1 -480.2,-88.8 -673.8,-191.5"/>
      </g>
      <g transform="matrix(1.426811, 0, 0, 1.629143, 2212.221224, 1152.190203)" id="g180" style="">
        <path id="path182" style="fill:#d7aaa4;fill-opacity:1;fill-rule:nonzero;stroke:none" d="m 11698.3,15244.6 c 2.5,13.3 5.7,26.7 9.7,39.9 193.1,102.4 414.8,170.9 671.7,190.9 1383.9,107.7 2117.7,458.9 2503.6,774 36.8,17.1 71.5,34 104.2,50.6 -363.9,-335.6 -1106.5,-737.9 -2605.4,-854.5 -262.7,-20.4 -488.3,-92.8 -683.8,-200.9"/>
      </g>
      <g transform="matrix(1.446543, 0, 0, 1.651674, 2212.221469, 1152.190081)" id="g184" style="">
        <path id="path186" style="fill:#ffeedf;fill-opacity:1;fill-rule:nonzero;stroke:none" d="m 16098.9,12948.3 c 59.3,716.8 -32.8,1390.4 -685.1,2603.6 -191.5,356.2 -411.9,501.8 -562.6,561.3 134.5,72.2 230.9,137 296.5,186.8 254.9,-420.8 1097.1,-1893.3 1039.1,-2884.6 -9.8,-166.1 -41.2,-321.9 -87.9,-467.1"/>
      </g>
      <g transform="matrix(1.416705, 0, 0, 1.617604, 2212.221469, 1152.190691)" id="g188" style="">
        <path id="path190" style="fill:#d7aaa4;fill-opacity:1;fill-rule:nonzero;stroke:none" d="m 14130.7,11446.3 c -101.6,0 -207.2,5.8 -315.9,18.9 -560.4,85.4 -970.9,326.2 -1048,374 -4.4,2.7 -8.8,5.5 -13.1,8.3 v 0 c 381.1,-101.2 730.8,-144.7 1050.8,-144.7 1297.1,0.2 2102.9,714.1 2495.5,1189.4 -343,-659.3 -948,-1027.7 -956.2,-1032.6 -21.7,-12.9 -39.1,-32.8 -49.2,-56 -3.9,-8.9 -28.1,-62.3 -80.5,-139.5 -14.3,-6.8 -28.4,-13.5 -42.6,-20 -197.7,-78 -576.8,-197.8 -1040.8,-197.8"/>
      </g>
      <g transform="matrix(1.322098, 0, 0, 1.509582, 2212.221469, 1152.190325)" id="g192" style="">
        <path id="path194" style="fill:#d7aaa4;fill-opacity:1;fill-rule:nonzero;stroke:none" d="m 14998.8,11773.1 c -157.4,0 -317.6,19.5 -475.9,59.2 -750.6,188.4 -856.5,863 -856.5,863 v 0 c 0,0 4.7,-3.2 14,-8.9 384.4,-241.3 768.8,-357.9 1123,-400.8 132.2,-20.1 272.2,-32.1 417.8,-32.1 324.8,-0.1 677.8,59.9 1035.9,223.9 15.3,6 29.7,11.8 42.9,17.3 -128.8,-188.1 -411.4,-502.8 -943.8,-687.2 -116.1,-22.8 -236,-34.4 -357.4,-34.4"/>
      </g>
      <g transform="matrix(1.318619, 0, 0, 1.505608, 2212.221469, 1152.190203)" id="g196" style="">
        <path id="path198" style="fill:#b7889b;fill-opacity:1;fill-rule:nonzero;stroke:none" d="m 15261.3,12285.8 c -146,0 -286.3,12.1 -418.9,32.2 116.8,-14.1 230.3,-20.3 339.4,-20.3 498.5,0 905.8,128.8 1118.2,212.5 -359.1,-164.4 -713,-224.5 -1038.7,-224.4 m -1544.9,434.1 c -9.3,5.7 -14,8.9 -14,8.9 4.7,-3 9.3,-6 14,-8.9"/>
      </g>
      <g transform="matrix(1.698939, 0, 0, 1.939861, 2212.221469, 1152.190569)" id="g200" style="">
        <path id="path202" style="fill:#390075;fill-opacity:1;fill-rule:nonzero;stroke:none" d="m 9970.13,10289.3 c 25.53,0 50.47,-9.7 69.47,-27.7 25,-23.8 36.1,-58.6 29.6,-92.5 -0.8,-4.1 -78.48,-432.72 172.5,-746.24 173.6,-216.9 466.3,-333.7 869.8,-347.12 33.8,-1.11 67,-1.66 99.5,-1.66 1193,-0.1 1528.8,736.52 1542.8,768.71 8.4,19.27 22.9,35.87 41,46.67 9.3,5.5 930.7,566.74 987.3,1532.94 57.8,988.7 -935.9,2539.2 -945.9,2554.8 -24.4,37.8 -20.8,87.2 8.8,121.1 3.5,4.1 372.8,440.2 278.6,1078.9 -84.7,573.7 -314.9,919.5 -599.9,903.3 -107.7,-6.3 -209.7,-89.2 -339,-194.1 -168,-136.4 -377,-306.2 -696.4,-375.8 -123.3,-26.8 -300.9,-45.9 -506.5,-68 -736.3,-79.2 -1848.99,-198.8 -2272.35,-827.3 -534.3,-793 -181.18,-1625.4 -177.55,-1633.7 18.57,-42.5 5.8,-92.4 -31.03,-120.6 -3.78,-3 -397.07,-312.1 -379.56,-744.4 13.67,-336.6 267.05,-667.7 753.12,-984 26.44,-17.3 43.29,-45.8 45.61,-77.3 0.31,-4.5 38.9,-466 345.05,-687.1 171.55,-123.9 400.61,-151.4 680.67,-81.9 8.08,2 16.25,3 24.37,3 M 11211.6,8872.21 c -34.9,0 -70.5,0.61 -106.8,1.82 -466.2,15.54 -810,158.32 -1022.1,424.46 -211,264.89 -234.31,582.59 -226.69,763.91 -280.37,-43.6 -518.87,4.3 -710.29,143 -318.16,230.8 -401.36,640.5 -421.24,784.3 -518.96,347.5 -789.64,724.3 -804.88,1120.6 -16.5,428.6 272.6,743.5 400.25,860.9 -82.24,234 -287.19,1000.7 222.19,1756.9 475.83,706.3 1644.66,832 2418.16,915.1 199.8,21.5 372.4,40.1 485.1,64.6 272.4,59.4 453,206 612.2,335.3 145,117.7 281.8,228.8 454.6,238.8 312.6,18.1 690,-254.8 811.1,-1075.3 87.7,-594.4 -169.1,-1026.8 -279.3,-1180.5 189.9,-305.9 995.3,-1664.4 939.6,-2615.4 -57.9,-989.6 -893.9,-1572.45 -1058.7,-1678.05 -80.9,-158.88 -506.3,-860.44 -1713.2,-860.44"/>
      </g>
      <g transform="matrix(1.687796, 0, 0, 1.927137, 2212.221469, 1152.190447)" id="g204" style="">
        <path id="path206" style="fill:#8a423a;fill-opacity:1;fill-rule:nonzero;stroke:none" d="m 13006.2,14124.6 c 0,0 -290.5,-326.3 -1287.9,-576.6 -847,-212.5 -1313.9,-138.3 -1613.3,-267.5 l -0.3,0.1 c -86.2,-37.2 -158.35,-91 -221.63,-173.6 -326.66,-424.6 241.23,-843.2 346.53,-1288.8 77.9,-329.9 -42.4,-596.1 -338.36,-462.3 -61.65,27.6 -130.87,72.6 -207.31,138 -444.38,379.8 -849.51,-61.8 -806.34,-373 -435.09,283.3 -656.41,557.5 -749.25,805.5 v 0.2 c -238.24,636.3 366.88,1099.9 366.88,1099.9 l -0.2,0.3 c -4.47,10.7 -137.43,320.5 -128.09,746.7 6.56,295.9 81.72,647.6 315.75,995.1 577.49,857.3 2310.62,824 2859.82,943.7 549.3,119.7 749.6,557.8 1058.1,575.7 208.9,12 413.5,-128 555.4,-437.5 6,-12.9 11.7,-26 17.4,-39.4 59.5,-140.5 106.8,-312.9 137.3,-518.9 103.4,-700.8 -304.5,-1167.6 -304.5,-1167.6"/>
      </g>
      <g transform="matrix(1.625343, 0, 0, 1.855827, 2212.221224, 1152.190325)" id="g208" style="">
        <path id="path210" style="fill:#7a3546;fill-opacity:1;fill-rule:nonzero;stroke:none" d="m 9129.67,11737.4 c -271.81,197.7 -457.98,400.4 -557.02,606.1 98.78,-26.4 242.07,-55.9 390.63,-55.9 229.89,0 472.43,70.5 582.86,331.6 114.02,269.6 -219.81,651.8 -629.22,862.6 12.82,27 13.98,59 1.27,87.8 -1.95,4.5 -101.84,237.4 -120.93,576.3 194.23,-240.9 412.67,-321.1 617.46,-321.1 407.77,0 761.38,317.9 761.38,317.9 -405.77,32.6 -585.08,478.1 -585.08,478.1 425.78,-131.9 826.98,-182.6 1191.38,-182.6 1198.2,0 2001.9,546.5 2001.9,546.5 -332.7,40.9 -714.2,386.4 -714.2,386.4 118.2,-22.8 228.1,-33.3 330.1,-33.3 746.8,0 1074.4,561 1213,962.2 44.9,-125.5 80.4,-271.7 104.6,-435.6 96.3,-652.8 -270.5,-1103 -290.6,-1126.9 -15.8,-16.5 -325.5,-326 -1284.3,-566.6 -462.8,-116.1 -811,-148 -1090.8,-173.6 -352,-32.2 -600.2,-55 -790.8,-231.8 -194.3,-51.1 -426.89,-200 -341.03,-627.1 124.13,-616.6 606.13,-943.3 419.03,-1260.2 -57,21.2 -128.8,64.1 -214.7,137.6 -137.67,117.6 -287.03,177.7 -432.53,177.7 -88.5,0 -175.57,-22.3 -257.73,-67.2 -149.15,-81.6 -261.32,-230.8 -304.67,-388.9"/>
      </g>
      <g transform="matrix(1.676112, 0, 0, 1.913797, 2212.221469, 1152.190203)" id="g212" style="">
        <path id="path214" style="fill:#d0b3b0;fill-opacity:1;fill-rule:nonzero;stroke:none" d="m 8530.45,13723.2 c -16.36,307.3 36.11,703 297.59,1091.2 429.12,637 1556.96,758.2 2303.26,838.5 208.5,22.4 388.4,41.7 513.5,68.9 323.7,70.6 535.6,242.7 705.9,380.9 130.9,106.4 234.4,190.4 343.6,196.7 6.6,0.4 13.2,0.6 19.8,0.6 136.5,0 259.7,-82.7 359.9,-233.1 -77.6,44.8 -171.6,82.6 -268.1,82.6 -3.6,0 -7.3,0 -10.9,-0.2 -241,-6.9 -519.1,-439.9 -891.1,-515.6 -371.8,-75.8 -2207.8,-227.7 -2713.38,-634 -439.5,-353.2 -628.92,-760.3 -660.07,-1276.5"/>
      </g>
      <g transform="matrix(1.698939, 0, 0, 1.939861, 2212.221469, 1152.190569)" id="g216" style="">
        <path id="path218" style="fill:#390075;fill-opacity:1;fill-rule:nonzero;stroke:none" d="m 12921,14031.9 h 0.2 -0.2 m 0,0 h 0.2 -0.2 m -377.7,2049.1 c -6.5,0 -13,-0.2 -19.6,-0.5 -107.7,-6.3 -209.7,-89.2 -339,-194.1 -168,-136.4 -377,-306.2 -696.4,-375.8 -123.3,-26.8 -300.9,-45.9 -506.5,-68 -736.3,-79.2 -1848.99,-198.8 -2272.35,-827.3 -536.42,-796.3 -181.23,-1625.3 -177.6,-1633.5 18.77,-42.6 6.01,-92.5 -30.98,-120.8 -3.78,-3 -397.07,-312.1 -379.56,-744.4 12.26,-302.5 218.21,-600.7 612.86,-887.7 41.47,151.3 148.79,294 291.47,372 207.87,113.9 448.59,75.3 660.34,-105.7 169.98,-145.3 282.19,-165.5 330.62,-136 57.5,35.1 92.4,169.4 47.7,358.3 -32.7,138.4 -121.31,283.7 -207.13,424.2 -174.72,286.3 -372.8,610.9 -118.92,940.9 191.92,249.4 447.75,272.9 835.15,308.3 267.6,24.6 600.7,55.1 1043.5,166.1 917.2,230.1 1213.5,526.3 1228.7,542.1 19.2,22.9 370.1,453.6 278,1078.1 -82.8,560.5 -304.1,903.8 -580.3,903.8 M 8819.39,10947.1 c -19.18,0 -38.3,5.4 -55.05,16.3 -544.9,354.7 -829.1,740.5 -844.74,1146.9 -16.5,428.6 272.6,743.5 400.25,860.9 -82.24,234 -287.19,1000.7 222.19,1756.9 475.83,706.3 1644.66,832 2418.16,915.1 199.8,21.5 372.4,40.1 485.1,64.6 272.4,59.4 453,206 612.2,335.3 145,117.7 281.8,228.8 454.6,238.8 312.6,18.1 690,-254.8 811.1,-1075.3 108.2,-733.7 -308.4,-1220.7 -326.3,-1241 l -0.6,-0.8 c -12.6,-14.1 -320.8,-350.3 -1330.3,-603.5 -457.9,-114.9 -799.7,-146.1 -1074.2,-171.3 -385.1,-35.3 -561,-58.1 -693.56,-230.4 -161.2,-209.6 -55.15,-407.4 131.26,-712.7 94,-154.1 191.1,-313.3 231.2,-482.9 62.8,-265.4 9.5,-486.5 -139,-577.1 -102.7,-62.6 -284.31,-86.6 -566.85,154.9 -148.69,127.2 -298.18,155.5 -432.34,82.2 -129.86,-71.1 -221.03,-233.5 -203.17,-362.2 5.45,-39.1 -12.52,-77.8 -45.87,-99 -16.5,-10.4 -35.26,-15.7 -54.08,-15.7"/>
      </g>
      <g transform="matrix(1.350599, 0, 0, 1.542123, 2212.221469, 1152.190447)" id="g220" style="">
        <path id="path222" style="fill:#390075;fill-opacity:1;fill-rule:nonzero;stroke:none" d="m 16225.4,12222.4 c -32.9,-21 -59.5,-37.2 -89.5,-53.5 -29.4,-16 -58.7,-31.6 -88.5,-45.9 -59.7,-28.6 -119.9,-55.7 -181.5,-78.9 -61.3,-24.3 -123.6,-45.3 -186.6,-64.6 l -94.9,-27.1 c -31.9,-8.3 -64,-15.5 -96,-23.2 -256.8,-58.7 -523,-75 -785,-55.4 -131.1,9.8 -260.9,32.8 -388.2,62.1 -127.4,29.9 -250.7,73.8 -371.1,122 -238.7,102.5 -458.4,241 -651.5,406.1 -7.6,6.6 -8.5,18.1 -2,25.7 5.8,6.8 15.6,8.2 23.1,3.9 217.5,-125.6 445.8,-225.5 680.8,-293.2 118,-32.5 237,-57.6 357,-74.4 120,-15.8 240.6,-23.3 360.9,-23.5 240.9,1.9 479.7,36.6 712.4,94.6 116.3,29.3 231,65.2 343.8,105.7 56.3,20.5 112.2,42.1 167.1,65.3 27.5,11.6 54.9,23.2 81.7,35.5 26.2,11.8 55.2,25.2 76.6,36 l 6.3,3.2 c 62.6,31.4 138.9,6.1 170.3,-56.5 29.4,-58.6 8.7,-129.3 -45.2,-163.9"/>
      </g>
      <g transform="matrix(1.090362, 0, 0, 1.244984, 2212.221469, 1152.190935)" id="g224" style="">
        <path id="path226" style="fill:#390075;fill-opacity:1;fill-rule:nonzero;stroke:none" d="m 15452.9,15996.9 c 12.5,12 36.6,23.7 55.8,34.2 20.4,10.3 41.3,19.9 62.3,29 41.8,18.6 85.1,34.1 127.3,53.3 42,19.3 82,41.7 122,69.3 40.2,27.6 75.7,62.4 115.2,106.3 l 1.3,1.6 c 7.9,8.7 21.4,9.4 30.1,1.5 3.7,-3.3 6,-7.6 6.8,-12.2 10.6,-61 3.8,-127.7 -18.1,-189.8 -22.9,-61.2 -57.7,-118.9 -99.7,-168.9 -42.6,-49.1 -90.9,-93.1 -145.3,-125.4 -27.1,-16.5 -55.4,-30.4 -85.1,-41.1 -30.8,-10.9 -57.8,-18.4 -97.3,-22.4 -74.8,-7.5 -141.5,47 -149.1,121.9 -4.3,43.3 12.1,83.9 41.3,111.8 l 32.5,30.9"/>
      </g>
      <g transform="matrix(1.386875, 0, 0, 1.583544, 2212.221469, 1152.190203)" id="g228" style="">
        <path id="path230" style="fill:#1e276a;fill-opacity:1;fill-rule:nonzero;stroke:none" d="m 14877.8,13916.8 c 129.3,-271 382.5,-614.3 799.3,-451 17.3,6.6 33.7,13.6 49.1,20.2 573.8,251.5 -6.9,537.7 47.3,1040.4 -205.9,-114 -524.4,-240.2 -1002.3,-323.5 0,0 33.2,-131.3 106.6,-286.1"/>
      </g>
      <g transform="matrix(1.363303, 0, 0, 1.55663, 2212.221469, 1152.190081)" id="g232" style="">
        <path id="path234" style="fill:#390075;fill-opacity:1;fill-rule:nonzero;stroke:none" d="m 15149.3,14164.2 c 139.6,-292.8 390.6,-608.6 793.1,-451 17.4,6.8 34,13.7 49.5,20.5 133,58.2 211,121.8 238.2,194.1 35.8,95.2 -15.3,204.6 -74.5,331.3 -65.6,140.5 -139.5,298.8 -127.5,490.7 -259,-138.5 -589,-244 -981.7,-313.9 11.4,-40.1 44.8,-149.1 103,-271.7 z m 589.4,-523.4 c -243.5,0 -458,174.8 -617.7,509.9 h -0.1 c -74.5,157 -109.1,292.6 -109.5,293.9 l -4.1,16.4 16.7,2.9 c 409.8,71.5 751.2,181.7 1014.7,327.4 l 26.5,14.7 -3.3,-30.1 c -21.2,-196.5 55,-359.6 122.2,-503.5 62.2,-133.1 115.9,-248.1 75.4,-355.7 -30.8,-81.8 -111.8,-149.1 -255,-211.9 -16,-6.9 -32.8,-14 -50.6,-20.8 -73.7,-28.9 -145.6,-43.2 -215.2,-43.2"/>
      </g>
      <g transform="matrix(1.346304, 0, 0, 1.537221, 2212.221469, 1152.190203)" id="g236" style="">
        <path id="path238" style="fill:#eb4f6e;fill-opacity:1;fill-rule:nonzero;stroke:none" d="m 15326.2,14336.3 c 133.2,-279.2 394,-632.9 823.4,-464.7 17.8,6.9 34.7,14 50.6,20.9 72,101.7 99.8,213.7 67.3,316.1 -71.7,225.5 -408.2,319.8 -751.5,210.7 -68.7,-21.8 -132.4,-50 -189.8,-83"/>
      </g>
      <g transform="matrix(1.347574, 0, 0, 1.538671, 2212.221469, 1152.190935)" id="g240" style="">
        <path id="path242" style="fill:#390075;fill-opacity:1;fill-rule:nonzero;stroke:none" d="m 15332.6,14316.2 c 142.4,-292.4 394.9,-600.1 795.9,-442.9 16.1,6.2 31.4,12.6 45.9,18.9 69.6,100.1 91.8,205.9 62.6,298.2 -68.9,216.5 -396.6,306.4 -730.8,200.2 -61.4,-19.5 -119.6,-44.5 -173.6,-74.4 z m 589.8,-516.2 c -246.3,0 -463.3,176.8 -624.9,515.9 l -6.4,13.2 12.8,7.4 c 59.5,34.3 124.3,62.7 192.6,84.4 350.9,111.4 696.7,12.4 770.7,-220.9 32.8,-103.2 8.2,-220.3 -69.4,-329.8 l -2.5,-3.7 -4.1,-1.7 c -16.1,-7 -33.1,-14.2 -51,-21.1 -74.7,-29.2 -147.4,-43.7 -217.8,-43.7"/>
      </g>
      <g transform="matrix(1.369158, 0, 0, 1.563316, 2212.221469, 1152.190569)" id="g244" style="">
        <path id="path246" style="fill:#390075;fill-opacity:1;fill-rule:nonzero;stroke:none" d="m 15062.8,14325.6 c 51.8,-153.6 186.6,-484.1 422.4,-605.2 112.3,-57.6 232.1,-60 366.3,-7.5 141.4,55.4 225.5,114.3 249.8,175.2 28.2,70.5 -15.7,164.6 -71.4,283.7 -53.9,115.3 -118.1,252.7 -131.5,413.9 -232,-110.7 -512.1,-197.9 -835.6,-260.1 z m 605.3,-806.9 c -88.4,0 -173.6,20.9 -254.7,62.6 -372.9,191.9 -520.7,762.1 -526.8,786.2 -5.3,21.1 -1.6,43.5 10.2,61.8 11.8,18.2 30.7,30.8 52.2,34.5 400.1,69.8 732.7,176.8 988.8,317.9 1.4,0.8 2.8,1.6 4.3,2.4 l 0.4,0.2 c 37.8,20.9 85.4,7.3 106.4,-30.5 11.4,-20.6 12.6,-44.2 5.1,-64.8 -13.1,-171 56.2,-319.5 117.7,-451 66,-141.2 128.3,-274.5 75,-407.9 -42.2,-105.6 -149.6,-189.1 -338.1,-263 -82.5,-32.2 -162.7,-48.4 -240.5,-48.4"/>
      </g>
      <g transform="matrix(1.291266, 0, 0, 1.474378, 2212.221224, 1152.190081)" id="g248" style="">
        <path id="path250" style="fill:#390075;fill-opacity:1;fill-rule:nonzero;stroke:none" d="m 14484.9,15862.2 c 18.4,59.6 46.5,110.1 81.1,158.9 34.6,48.2 75.8,92.5 123.2,131.1 94.2,77.4 216.5,131.1 345.5,141.7 64.3,6.1 129.4,1.6 191,-12.6 15.6,-2.7 30.8,-6.9 45.7,-11.8 14.9,-4.9 30,-9 44.5,-14.6 28.3,-12.3 57.3,-22.9 83.4,-38.5 106.8,-57.9 194.8,-137.6 260.4,-231.2 12.7,-18.1 8.3,-43.1 -9.9,-55.7 -12,-8.5 -27.2,-9.4 -39.8,-3.6 l -0.4,0.2 c -98.6,46 -192.1,87.4 -284.3,113.1 -45.9,13.5 -91.3,22.2 -135.8,26.3 -44.6,4.9 -88.2,4.3 -131.2,-1.4 -85.9,-10.8 -169.6,-40.1 -253.8,-83.4 -84.1,-42.6 -168.4,-100.4 -254.7,-160.7 l -3.6,-2.5 c -18.2,-12.7 -43.2,-8.3 -55.9,9.9 -7.3,10.5 -8.9,23.5 -5.4,34.8"/>
      </g>
      <g transform="matrix(1.397377, 0, 0, 1.595535, 2212.221469, 1152.190325)" id="g252" style="">
        <path id="path254" style="fill:#390075;fill-opacity:1;fill-rule:nonzero;stroke:none" d="m 16249.1,15398.8 c -80,8.1 -155.5,19.1 -222.1,18.2 -67.2,0 -122.2,-10 -167.9,-33.9 -23,-12.2 -44.9,-28.4 -66.2,-49.3 -20.6,-21.7 -41.2,-46.8 -60.2,-75.9 -38.9,-57.7 -71.1,-127.9 -109.5,-201.3 l -0.7,-1.1 c -9.6,-18.3 -32.2,-25.4 -50.6,-15.8 -10.8,5.7 -17.7,16.2 -19.5,27.4 -13.7,85.9 -10.1,175.2 18.9,264.4 14,44.8 36,88.9 65.2,130.7 30.5,41.2 70.3,78.9 117.6,106.6 47.1,27.7 100.6,44.8 152.7,49.6 52.3,5.7 102.9,-0.5 149.4,-12.5 46.5,-12.5 89.3,-31.7 127.9,-55.9 38.8,-24.8 73,-52.6 102.9,-90.5 13,-16.4 10.2,-40.2 -6.2,-53.2 -8,-6.3 -17.8,-8.9 -27.2,-8 l -4.5,0.5"/>
      </g>
      <g transform="matrix(1.138441, 0, 0, 1.299881, 2212.221469, 1152.190813)" id="g256" style="">
        <path id="path258" style="fill:#d7aaa4;fill-opacity:1;fill-rule:nonzero;stroke:none" d="m 14422.5,15294.8 c -232.2,0.1 -431.7,59.5 -595.8,178.1 -303.4,219.1 -430.7,596.3 -482.1,827.1 359,-668.4 1091.3,-778.5 1535.3,-778.5 149.5,0 266.3,12.5 325.1,20.4 -17.2,-15.9 -34.5,-30.1 -52.9,-42.7 -38.3,-26.4 -76.6,-47.8 -116.8,-66.4 -40.4,-18.3 -81.9,-33.2 -121.9,-50.9 -20.1,-8.8 -40.1,-18 -59.7,-27.8 -1,-0.5 -2,-1.1 -3,-1.6 -2.7,-0.5 -5.5,-1.1 -8.2,-1.8 -149.9,-37.3 -290.1,-55.9 -420,-55.9"/>
      </g>
      <g transform="matrix(1.146147, 0, 0, 1.308678, 2212.221469, 1152.190447)" id="g260" style="">
        <path id="path262" style="fill:#390075;fill-opacity:1;fill-rule:nonzero;stroke:none" d="m 14349.3,15001.5 c -249.8,0.1 -438.9,90.9 -438.9,90.9 l -579.5,444.7 -218.4,603.1 -32.8,86.8 c 25.6,1.2 51,8.9 73.5,23.2 20.2,12.9 36.6,30.1 48.4,49.8 16.6,-38.1 34.4,-74.7 53.2,-109.6 51.1,-229.3 177.5,-603.9 478.9,-821.6 163,-117.8 361.2,-176.8 591.8,-176.9 129,0 268.2,18.5 417.1,55.5 2.8,0.7 5.5,1.3 8.2,1.8 -17.7,-9.5 -38.8,-20.2 -50.1,-30.9 l -30.9,-29.4 c -27.8,-26.6 -43.4,-65.2 -39.3,-106.4 1.3,-12.8 4.4,-24.9 9.1,-36.2 -100.7,-32.7 -199.5,-44.8 -290.3,-44.8"/>
      </g>
      <g transform="matrix(1.154615, 0, 0, 1.318348, 2212.221224, 1152.190691)" id="g264" style="">
        <path id="path266" style="fill:#390075;fill-opacity:1;fill-rule:nonzero;stroke:none" d="m 12983.7,16108 -72.4,192 191.9,-115.9 c 0.5,-1.2 1,-2.4 1.6,-3.6 -11.7,-19.6 -28,-36.7 -48.1,-49.5 -22.3,-14.2 -47.5,-21.8 -73,-23"/>
      </g>
      <g transform="matrix(1.085931, 0, 0, 1.239922, 2212.221224, 1152.190813)" id="g268" style="">
        <path id="path270" style="fill:#390075;fill-opacity:1;fill-rule:nonzero;stroke:none" d="m 15451.4,15880.6 c -4.9,11.9 -8.2,24.7 -9.6,38.2 -4.3,43.5 12.2,84.2 41.5,112.3 l 32.6,31.1 c 12,11.3 34.2,22.5 52.9,32.6 1.1,0.6 2.1,1.2 3.1,1.7 20.5,10.3 41.5,20 62.6,29.1 41.9,18.7 85.4,34.2 127.8,53.5 42.1,19.4 82.3,41.9 122.5,69.6 19.3,13.2 37.4,28 55.4,44.7 28.5,3.8 44.1,6.6 44.1,6.6 -161.4,-235.9 -350,-360 -532.9,-419.4"/>
      </g>
      <g transform="matrix(1.135835, 0, 0, 1.296904, 2212.221469, 1152.190691)" id="g272" style="">
        <path id="path274" style="fill:#33aef1;fill-opacity:1;fill-rule:nonzero;stroke:none" d="m 16223.3,9319.96 c -72.8,-351.6 -309,-681.01 -563.9,-944.32 -283.5,-292.43 -589.7,-503.51 -722,-572.79 -84.9,-44.75 -245.3,-117.05 -449.6,-195.98 -788.5,-306.02 -2228.7,-715.05 -2486.1,-23.92 -58.9,157.72 -57.2,318.09 -15.4,474.08 188.6,705.38 1196.8,1334.24 1196.8,1334.24 -8,6.94 -15.6,13.89 -23.2,21.13 -805.2,731 -632.7,1643.4 -632.7,1643.4 0,0 547.1,852 2738.8,-294.7 194.3,-101.8 355.3,-207.1 486,-314.5 446,-366.5 548,-758.82 471.3,-1126.64"/>
      </g>
      <g transform="matrix(1.122129, 0, 0, 1.281254, 2212.221469, 1152.190447)" id="g276" style="">
        <path id="path278" style="fill:#addff9;fill-opacity:1;fill-rule:nonzero;stroke:none" d="m 16118.4,9232.8 c 152.5,903.8 -428.1,1367.2 -471.9,1494.8 9.2,-4.6 18.2,-9.1 27.2,-13.8 1.1,-1.7 2.4,-3.3 3.8,-4.9 l 2.3,-2.6 c 103.9,-117.9 213.5,-216.8 301.8,-328.8 90.2,-108.9 171.7,-218.1 225.5,-335.7 55,-116.39 90.6,-239.45 91.4,-369.84 1.5,-123.45 -28.4,-249.41 -76.3,-371.33 -34.7,-22.84 -69.3,-45.45 -103.8,-67.83"/>
      </g>
      <g transform="matrix(1.046207, 0, 0, 1.194568, 2212.221469, 1152.190447)" id="g280" style="">
        <path id="path282" style="fill:#390075;fill-opacity:1;fill-rule:nonzero;stroke:none" d="m 13862.6,7658.94 c -220,0 -423.6,30.24 -590.5,105.2 -193.3,86.85 -326.5,225.15 -395.8,411.22 -322.9,867 742.7,1734.08 1176.5,2042.84 -790,821.1 -621.4,1773.1 -613.4,1815.1 16.8,89 102.8,147.4 191.4,130.6 88.9,-16.8 147.4,-102.5 130.6,-191.4 -6.6,-36.5 -155.5,-913.8 636,-1632.4 1.2,-1.2 2.4,-2.3 3.7,-3.6 6.1,-5.9 12.3,-11.4 18.8,-17.1 39.2,-34.1 59.9,-84.8 55.7,-136.6 -4,-51.7 -32.4,-98.5 -76.5,-126.1 -422.8,-264.1 -1465.3,-1096.6 -1215.7,-1766.96 38.1,-102.26 111,-176.4 223,-226.71 466.8,-209.75 1475.3,42.36 2263.2,348.21 138.2,53.42 271,109.3 374.3,157.55 81.9,38.35 179.5,2.79 217.8,-79.14 38.3,-82.02 2.8,-179.51 -79.2,-217.78 -77.7,-36.29 -209.2,-94.63 -394.5,-166.23 -399.5,-155.1 -1242.2,-446.7 -1925.4,-446.7"/>
      </g>
      <g transform="matrix(1.143806, 0, 0, 1.306006, 2212.221469, 1152.190203)" id="g284" style="">
        <path id="path286" style="fill:#390075;fill-opacity:1;fill-rule:nonzero;stroke:none" d="m 15434,10589.2 c 151.1,-45.9 297.3,-114 426.5,-214.8 l 49,-37 45.5,-42.3 44.7,-43.6 c 15.2,-14.3 29.9,-29.1 42.6,-46.3 26.1,-33.3 53.5,-65.9 78.5,-100.4 22.1,-37 44.6,-74 65.7,-111.82 79.3,-155.58 113.5,-335.88 107.4,-508.77 -5.6,-173.64 -46.6,-340.38 -109.4,-492.66 -62.8,-152.66 -145.4,-292.27 -237.6,-422.07 -92.6,-129.8 -195.2,-249.85 -304.1,-362.56 -109,-112.71 -224.3,-218.08 -345.4,-316.93 -60.7,-49.23 -122.6,-97.04 -187.2,-142.68 -64.9,-46.02 -129.4,-89.48 -207.2,-131.52 -72.9,-39.27 -163.8,-12.14 -203.1,60.7 -39.4,72.84 -12.2,163.74 60.7,203.09 l 0.2,0.07 2.9,1.65 c 54.6,29.3 115.6,69.32 173.1,110.54 58.3,41.07 115.4,85.28 171.5,130.7 111.8,91.35 219,189.22 319,292.71 199,206.77 375.4,438.03 479.9,689.98 51.4,125.45 84,255.85 82.5,383.48 -0.8,127.92 -35.7,248.65 -89.7,362.86 -52.7,115.33 -132.7,222.53 -221.2,329.33 -86.6,109.8 -194.2,206.9 -296.1,322.5 l -2.2,2.6 c -18.8,21.3 -16.7,53.8 4.5,72.6 13.9,12.2 32.6,15.6 49,10.6"/>
      </g>
      <g transform="matrix(0.986369, 0, 0, 1.126244, 2212.221469, 1152.190325)" id="g288" style="">
        <path id="path290" style="fill:#390075;fill-opacity:1;fill-rule:nonzero;stroke:none" d="m 15104.5,10946 c 83.2,66.3 172.7,114.2 265.4,159.8 92.6,44.9 190.3,80 289,112.5 98.7,32.5 199.5,60.4 302.9,81.1 103.3,19.4 209.1,35.2 316.2,29.5 12.4,-0.7 22,-11.3 21.3,-23.7 -0.4,-8 -5,-14.9 -11.5,-18.5 l -0.5,-0.3 c -89.9,-49.8 -174.8,-102.3 -259.4,-155.7 -84.7,-52.4 -168.2,-107.1 -252.1,-160.4 -83.9,-53.2 -166.7,-108.6 -252.9,-157.3 -86,-48.1 -174,-96 -265.9,-130.1 l -3.3,-1.3 c -79.6,-29.5 -168.1,11 -197.6,90.6 -23.7,63.9 -2.1,133.5 48.4,173.8"/>
      </g>
      <g transform="matrix(1.009555, 0, 0, 1.152718, 2212.221469, 1152.190203)" id="g292" style="">
        <path id="path294" style="fill:#ed3b3b;fill-opacity:1;fill-rule:nonzero;stroke:none" d="m 16300,8558.36 c -887.2,-344.3 -2507.5,-804.49 -2797.1,-26.92 -364.4,978.54 1329.2,2034.56 1329.2,2034.56 -9,7.8 -17.6,15.6 -26.1,23.7 l 330.7,141.7 1.4,0.6 c 0,0 -481.6,-1753.87 1161.9,-2173.64"/>
      </g>
      <g transform="matrix(1.013858, 0, 0, 1.157632, 2212.221469, 1152.190813)" id="g296" style="">
        <path id="path298" style="fill:#0f227a;fill-opacity:1;fill-rule:nonzero;stroke:none" d="m 14781.6,10538.3 1.3,-1.2 21.6,-18.8 -24.2,-15.1 c -16.8,-10.4 -1667.5,-1053.61 -1314.9,-2000.6 53.1,-142.46 156.8,-249.24 308.1,-317.22 629.4,-282.55 1919.3,155.31 2389.2,333.2 -436.6,124.62 -756.9,358.56 -952.9,695.81 -328.7,565.7 -205,1261.01 -166.2,1436.21 l -262,-112.3 m -480.5,-2487.09 c -205.3,0 -393.3,27.56 -544.8,95.62 -162.2,72.8 -273.3,187.52 -330.4,340.97 -345.4,927.47 1095.8,1899.2 1308.4,2036.3 -1.9,1.8 -3.9,3.6 -5.8,5.5 l -22.9,22.1 398.8,170.7 -10.2,-41.5 c -2.2,-8 -216.3,-811.7 152.3,-1445.54 199.3,-342.92 532.3,-576.01 989.6,-692.86 l 63.9,-16.31 -61.5,-23.85 c -319.4,-123.94 -1230.2,-451.13 -1937.4,-451.13"/>
      </g>
      <g transform="matrix(0.935711, 0, 0, 1.0684, 2212.221469, 1152.190569)" id="g300" style="">
        <path id="path302" style="fill:#f8b1b1;fill-opacity:1;fill-rule:nonzero;stroke:none" d="m 14725.1,9520.35 c -75.9,55.6 -130.5,127.61 -161.8,215.73 198.7,852.82 1436.3,1635.02 1451.4,1644.32 l 26.2,16.4 -23.3,20.4 -1.5,1.2 283.9,121.7 c -12.6,-56.8 -33.4,-164 -46.8,-302.8 l -95.5,-40.8 c 9.2,-8.8 18.4,-17.2 28.1,-25.7 0,0 -1253.9,-781.8 -1460.7,-1650.45"/>
      </g>
      <g transform="matrix(0.937596, 0, 0, 1.070553, 2212.221224, 1152.190447)" id="g304" style="">
        <path id="path306" style="fill:#9fa7ca;fill-opacity:1;fill-rule:nonzero;stroke:none" d="m 14484.1,9503.79 c 9.5,952.31 1486.4,1873.21 1486.4,1873.21 -9.7,8.4 -18.9,16.8 -28.1,25.6 l 356.1,152.5 1.5,0.7 c 0,0 -35.7,-130.7 -56.5,-331.2 l -22.9,-9.8 c 13.3,138.5 34.1,245.4 46.7,302.1 l -283.4,-121.4 1.5,-1.3 23.3,-20.3 -26.1,-16.3 c -15.1,-9.3 -1250.2,-789.9 -1448.5,-1641.07 -5.1,14.27 -9.5,28.98 -13.4,44.07 -22.7,-84.75 -35.7,-170.69 -36.6,-256.81"/>
      </g>
      <g transform="matrix(1.10963, 0, 0, 1.266985, 2212.221469, 1152.190203)" id="g308" style="">
        <path id="path310" style="fill:#348bd8;fill-opacity:1;fill-rule:nonzero;stroke:none" d="m 14620.8,7872.87 c -199.8,76.71 -367.2,183 -500.9,317.96 618.1,233.9 1359.9,614.35 2180.1,1145.98 -12.8,-75.94 -30.7,-154.88 -54.5,-237.08 -97.3,-150.86 -215.7,-293 -343.1,-425.33 -103.1,-106.68 -213.6,-207.57 -328.8,-301.73 -57.8,-46.81 -116.8,-92.39 -176.9,-134.72 -59.2,-42.49 -122.1,-83.74 -178.3,-113.95 l -3,-1.69 -0.3,-0.08 c -14.7,-7.96 -27.6,-17.92 -38.5,-29.43 -16.8,-1.7 -33.6,-6.26 -49.7,-13.75 -97.4,-45.5 -222.6,-98.19 -352.9,-148.55 -50.2,-19.47 -101.3,-38.7 -153.2,-57.63"/>
      </g>
      <g transform="matrix(1.116781, 0, 0, 1.275147, 2212.221469, 1152.190203)" id="g312" style="">
        <path id="path314" style="fill:#96b2df;fill-opacity:1;fill-rule:nonzero;stroke:none" d="m 16141.5,9041.5 c 23.6,81.67 41.5,160.11 54.2,235.56 34.6,22.49 69.4,45.21 104.3,68.16 -2.5,-6.53 -5.2,-13.13 -7.9,-19.65 -40.5,-97.79 -91.7,-192.58 -150.6,-284.07"/>
      </g>
      <g transform="matrix(1.033154, 0, 0, 1.179662, 2212.221469, 1152.190447)" id="g316" style="">
        <path id="path318" style="fill:#390075;fill-opacity:1;fill-rule:nonzero;stroke:none" d="m 15960.9,8375.84 -28,7.13 c -80.6,20.58 -157.2,44.8 -229.9,72.68 55.8,20.33 110.7,40.98 164.7,61.89 139.8,54.09 274.3,110.68 379,159.55 17.3,8.05 35.3,12.94 53.3,14.77 -46.5,-48.87 -59.8,-122.96 -29.3,-186.35 -84.5,-38.16 -189.7,-82.72 -309.8,-129.67"/>
      </g>
      <g transform="matrix(1.130487, 0, 0, 1.290797, 2212.221469, 1152.190813)" id="g320" style="">
        <path id="path322" style="fill:#390075;fill-opacity:1;fill-rule:nonzero;stroke:none" d="m 14869.8,7773.19 c -27.9,57.94 -15.7,125.65 26.8,170.31 10.7,11.29 23.4,21.07 37.8,28.88 l 0.2,0.08 3,1.67 c 55.2,29.64 116.9,70.13 175.1,111.84 59,41.55 116.8,86.28 173.5,132.23 113.2,92.43 221.6,191.46 322.8,296.17 125.1,129.89 241.3,269.4 336.8,417.48 58.2,90.39 108.7,184.03 148.7,280.63 2.7,6.44 5.3,12.96 7.8,19.41 65.4,43.07 131.4,87.19 197.7,132.16 -73.1,-353.27 -310.4,-684.23 -566.6,-948.78 -284.7,-293.82 -592.4,-505.9 -725.4,-575.5 -34.4,-18.12 -81.2,-40.79 -138.2,-66.58"/>
      </g>
      <g transform="matrix(1.005321, 0, 0, 1.147882, 2212.221469, 1152.190569)" id="g324" style="">
        <path id="path326" style="fill:#c92f47;fill-opacity:1;fill-rule:nonzero;stroke:none" d="m 14423.9,8161.55 c -201.3,0 -385.4,26.95 -533.4,93.37 -61.5,27.71 -115.3,61.73 -161,101.89 -61.9,167.71 -63.6,337.81 -24,504.33 119.5,-87.48 296,-131.56 522.2,-131.56 336.4,-0.08 782.3,97.46 1313.5,294.76 191.7,-198.75 445.5,-343.95 758.8,-433.4 -363.5,-137.61 -1213.3,-429.39 -1876.1,-429.39"/>
      </g>
      <g transform="matrix(1.011665, 0, 0, 1.155126, 2212.221469, 1152.190813)" id="g328" style="">
        <path id="path330" style="fill:#171b79;fill-opacity:1;fill-rule:nonzero;stroke:none" d="m 14336,8088.95 c -412.9,0 -744.7,112.1 -861.1,424.75 -36.6,97.61 -52.3,196.15 -51.3,294.27 -0.9,-98.12 14.9,-196.57 51.3,-294.27 39.2,-105.4 103.6,-187.34 186.7,-250.54 -5.8,12.79 -12.3,25.16 -17.3,38.72 -0.3,0.85 -0.6,1.69 -0.9,2.54 45.4,-39.91 98.9,-73.71 160,-101.25 147.1,-66 330.1,-92.78 530.1,-92.78 658.6,0 1503.1,289.94 1864.3,426.7 -311.3,88.88 -563.5,233.17 -754,430.68 14.3,5.34 29,10.84 43.5,16.27 146.6,-148.03 330.3,-264.61 549.4,-348.75 74.2,-28.47 152.4,-53.21 234.7,-74.22 l 28.6,-7.29 c -11.2,-4.41 -22.5,-8.81 -33.9,-13.22 -528.6,-205.21 -1318.3,-451.52 -1930.1,-451.61"/>
      </g>
      <path id="path332" style="fill: rgb(210, 142, 165); fill-opacity: 1; fill-rule: nonzero; stroke: none;" d="M 16014.8 10744.8 C 15946.7 10813 15896.4 10896.7 15864.3 10995.1 C 15803.9 11180.4 15801.5 11368.8 15839.3 11554.3 C 15868.6 11460.1 15919.7 11383.2 15990.7 11323.7 C 15950.8 11132.6 15952.6 10937.3 16014.8 10744.8"/>
      <path id="path334" style="fill: rgb(139, 134, 185); fill-opacity: 1; fill-rule: nonzero; stroke: none;" d="M 16033.2 10697.2 C 15949 10770.1 15883.9 10864.8 15844.3 10986.6 C 15807.5 11099.4 15791.4 11213.2 15792.4 11326.6 C 15793.3 11418.7 15805.4 11510.7 15826.7 11601.3 C 15830.4 11585.3 15834.5 11569.5 15839.3 11554.3 C 15801.5 11368.8 15803.9 11180.4 15864.3 10995.1 C 15896.4 10896.7 15946.7 10813 16014.8 10744.8 C 16015.1 10743.9 16015.5 10742.8 16015.7 10742 C 16020.8 10726.2 16027.3 10712 16033.2 10697.2"/>
      <g transform="matrix(1.018984, 0, 0, 1.163484, 2212.221469, 1152.190203)" id="g336" style="">
        <path id="path338" style="fill:#390075;fill-opacity:1;fill-rule:nonzero;stroke:none" d="m 14801.7,10367.1 c -8.5,-9 -18.2,-17 -28.9,-23.7 -15.7,-9.8 -1571.6,-993.96 -1256.8,-1839.46 41.2,-110.53 119.6,-190.53 240,-244.62 412.1,-184.99 1225.3,-25.91 1959,219.55 -301.1,144.18 -532.6,353.65 -690.8,625.78 -257.6,443.48 -258,948.15 -222.5,1262.45 z m -568.1,-2482.79 c -223.3,0 -429.4,30.7 -598.2,106.49 -193.2,86.73 -326.2,224.77 -395.3,410.34 -351.1,942.74 929.4,1891.06 1288.2,2133.96 12.7,41.1 42.8,74.9 82.8,92.1 l 327,139.8 c 50.3,21.9 109.2,14.4 152.1,-20.2 45.3,-36.9 65.3,-96.7 49.9,-153 -2.1,-7.4 -200.4,-759.66 139.6,-1342.87 180.9,-310.07 485.6,-521.8 906,-629.14 62,-15.81 106.6,-69.9 110.5,-133.75 3.8,-63.93 -34.1,-122.98 -93.7,-146.12 -409.1,-158.73 -1272.1,-457.61 -1968.9,-457.61"/>
      </g>
      <g transform="matrix(1.115829, 0, 0, 1.27406, 2212.221469, 1152.190203)" id="g340" style="">
        <path id="path342" style="fill:#33aef1;fill-opacity:1;fill-rule:nonzero;stroke:none" d="m 16084.2,11706.7 c -212.4,-293.6 -3168.3,-2517.8 -4052.7,-684.2 -1.6,2.8 -2.8,6.1 -4,8.9 -861.2,1819.5 3091.1,4026.6 3145.3,4056.6 l -1301,-2085.1 -9.4,-14.8 -89.6,-144.1 c 83.9,115.7 168.8,207.8 252.3,280.3 52,45 103.1,82.8 153.6,113.7 2.5,1.6 3.8,2.7 3.8,2.7 213.5,131.5 408.2,149.5 541.9,138.6 73.5,-5.9 129,-20.8 158.5,-30.5 h 0.4 c 16.1,-5.3 24.6,-8.9 24.6,-8.9 l 428.9,148.1 c 65.3,22.8 133.5,31.3 200.6,26.4 l 1.5,-0.2 c 113.8,-8.4 223.1,-55.3 307.8,-137.4 370.1,-358.9 453.3,-773.9 422.7,-1109.4 -22.6,-248.7 -108.1,-453.9 -185.2,-560.7"/>
      </g>
      <g transform="matrix(1.054634, 0, 0, 1.20419, 2212.221469, 1152.190813)" id="g344" style="">
        <path id="path346" style="fill:#348bd8;fill-opacity:1;fill-rule:nonzero;stroke:none" d="m 14737,13854 527.6,845.6 c 93.6,29.3 190,50.9 286.8,50.9 25.8,0 51.7,-1.5 77.7,-4.9 157.8,-20.5 299.7,-106.7 424.1,-206 66.9,-53.3 169.8,-130.7 246.8,-218 -40.3,-4.5 -80.6,-13.5 -120.3,-27.3 l -446.5,-154.2 c -30.3,11.3 -127,43 -263.9,43 -163,0 -383.1,-44.9 -615.8,-222.3 l -10.6,-3.4 -0.5,-5.2 c -33.7,-28.2 -67.7,-59.8 -103.7,-96.5 -0.5,-0.5 -1.1,-1.1 -1.7,-1.7"/>
      </g>
      <g transform="matrix(0.987639, 0, 0, 1.12769, 2212.221224, 1152.190569)" id="g348" style="">
        <path id="path350" style="fill:#348bd8;fill-opacity:1;fill-rule:nonzero;stroke:none" d="m 14504.5,14103.5 c -57.1,0 -113.1,8.8 -165.9,31.9 425.5,704.8 1099.9,1255.8 1875.3,1532.2 28.5,10.2 57.2,19.9 86.1,29 l -563.4,-902.8 c -62.8,-64.8 -125.1,-139.3 -185.3,-221.7 l -547.3,-214.5 -5.7,-2.2 -3.6,-4.9 c -36,-47.1 -81.1,-108.7 -130.7,-182.2 -32.2,-7.9 -64.4,-15.8 -96.5,-23.6 -85.6,-20.7 -175.7,-41.2 -263,-41.2"/>
      </g>
      <g transform="matrix(1.116076, 0, 0, 1.274345, 2212.221469, 1152.190569)" id="g352" style="">
        <path id="path354" style="fill:#ed3b3b;fill-opacity:1;fill-rule:nonzero;stroke:none" d="m 16164.8,11962 c -35.5,-107.8 -80.1,-195.4 -122.2,-253.7 -35.9,-49.5 -149,-153.2 -317.2,-283.4 -522,-404.2 -1572.6,-1061.3 -2463.6,-1114.9 -429.8,288 -564.2,656.7 -551.3,1021.8 20.6,564.4 394,1119.8 573.9,1355.7 l 461.7,181 -14.5,-23.2 c 6,8.2 12.2,16.4 18.5,24.6 l 23.8,9.5 c 56.3,77.3 112,143.5 167.2,200.2 34.7,35.2 68.6,66.7 102.5,94.8 0,0.3 0.4,0.3 1.2,0.6 424.8,325.5 802.4,174 820.9,166.6 l 0.7,-0.5 428.9,148.1 c 177.2,61.3 375.1,19.6 509.8,-111.2 494.9,-479.7 476.9,-1059.4 359.7,-1416"/>
      </g>
      <g transform="matrix(1.123405, 0, 0, 1.282713, 2212.221224, 1152.190569)" id="g356" style="">
        <path id="path358" style="fill:#0f227a;fill-opacity:1;fill-rule:nonzero;stroke:none" d="m 13209.6,12588.9 c -165.1,-217.4 -542.5,-773 -562.9,-1331.7 -14.7,-411 164.9,-745.7 533.9,-995 808.4,51.3 1813.9,625.8 2430.5,1103.2 185,143.2 282.1,237.3 311.4,277.7 44.4,61.5 86.6,149.2 118.8,246.7 61.1,186.1 216.2,835.9 -352.6,1387.2 -128.7,124.8 -315.2,165.5 -487.1,106.2 l -429.9,-148.5 -12.1,1.2 -2.2,2.5 c -55.8,21.2 -403.2,133.8 -792.7,-164.5 l -2.6,-1.8 c -31.9,-26.6 -64.2,-56.4 -98.4,-91.3 -55.6,-57.1 -110.9,-123.3 -164.2,-196.7 l -3.3,-4.5 -23.9,-9.5 c -5,-6.5 -10,-13.2 -14.8,-19.8 l -13.3,8.8 -434.6,-170.2 m -39.6,-2365.6 -5.3,3.6 c -384.3,257.5 -571.4,604.6 -556.2,1031.6 20.9,573.4 408.4,1140.5 574,1357.7 l 3.3,4.3 4.9,2 481.2,188.5 c 53.4,73.1 108.8,139.2 164.6,196.5 33.8,34.4 65.6,64.1 97.2,90.6 l 0.6,4.9 9.9,3.2 c 401.9,306.2 763.5,191.6 825.8,168.2 l 419.2,144.8 c 185.5,64 387.1,20.1 526,-114.8 584.8,-566.8 425.2,-1235.1 362.3,-1426.5 -33.4,-101.2 -77.5,-192.6 -124.2,-257.2 -39.2,-54.1 -161.4,-163.6 -318.7,-285.5 -622.6,-482 -1640,-1062.3 -2458.2,-1111.5 l -6.4,-0.4"/>
      </g>
      <g transform="matrix(1.120474, 0, 0, 1.279365, 2212.221469, 1152.190081)" id="g360" style="">
        <path id="path362" style="fill:#f8b1b1;fill-opacity:1;fill-rule:nonzero;stroke:none" d="m 15818.8,11662 c 161,358.6 180.6,728.3 -21.4,1167.8 -109.6,238.6 -262.3,312.4 -409.1,312.4 -237.8,0 -460.2,-193.4 -460.2,-193.4 -186,98.2 -385.5,127.8 -570,127.8 -165.3,0 -318.6,-23.8 -439.6,-43.2 27.6,27.1 53.9,51.1 80.1,72.8 l 2.6,1.9 c 212.3,162.6 412.1,203.4 559.2,203.4 123.6,0 210,-28.8 235.6,-38.5 l 2.2,-2.5 12.1,-1.2 431.1,148.9 c 52.4,18.1 106.1,26.9 159.1,26.9 121.5,0 239.5,-46.2 329.2,-133.4 570.3,-552.7 414.8,-1204.2 353.5,-1390.8 -5.8,-17.5 -11.9,-34.7 -18.3,-51.5 -60.3,-69.3 -144.7,-141.3 -246.1,-207.4"/>
      </g>
      <g transform="matrix(1.120474, 0, 0, 1.279365, 2212.221469, 1152.190081)" id="g364" style="">
        <path id="path366" style="fill:#9fa7ca;fill-opacity:1;fill-rule:nonzero;stroke:none" d="m 15887.3,11566.1 c 44.8,41.3 76.3,74.1 92.2,96.2 -15.9,-22.1 -47.4,-54.9 -92.2,-96.2 m 177.6,303.3 c 6.4,16.8 12.5,34 18.3,51.5 61.3,186.6 216.8,838.1 -353.5,1390.8 -89.7,87.2 -207.7,133.4 -329.2,133.4 -53,0 -106.7,-8.8 -159.1,-26.9 l -431.1,-148.9 -12.1,1.2 -2.2,2.5 c -25.6,9.7 -112,38.5 -235.6,38.5 -147.1,0 -346.9,-40.8 -559.2,-203.4 l -2.6,-1.9 c -26.2,-21.7 -52.5,-45.7 -80.1,-72.8 -11,-1.8 -21.7,-3.5 -32.2,-5.2 34.6,35.1 68.3,66.5 102.1,94.4 0,0.4 0.4,0.4 1.3,0.6 216.3,165.9 420.5,207.4 570.8,207.4 143.5,0 237.8,-37.9 246.8,-41.4 l 0.7,-0.5 427.2,147.6 c 53.6,18.5 109.1,27.6 164.2,27.6 126.3,0 250.2,-47.8 343.6,-138.5 493,-477.7 475.1,-1055.2 358.3,-1410.4 v 0 c -10.8,-15 -23,-30.3 -36.4,-45.6"/>
      </g>
      <g transform="matrix(1.087397, 0, 0, 1.241596, 2212.221469, 1152.190447)" id="g368" style="">
        <path id="path370" style="fill:#c92f47;fill-opacity:1;fill-rule:nonzero;stroke:none" d="m 13617,10602 c -377.5,255.1 -563.1,596.7 -551.9,1015.7 181.3,-119.2 358.1,-166 523.8,-166 610.3,0 1072.1,635.6 1072.1,635.6 233.5,-244.7 514.3,-336.5 790.4,-336.5 314.1,-0.1 622.3,118.7 848.6,266 -36.3,-80.8 -79.5,-161.1 -128.9,-241.4 -13.8,-10.9 -28.1,-22.1 -43,-33.6 C 15491,11248.5 14452.2,10655 13617,10602"/>
      </g>
      <g transform="matrix(1.092101, 0, 0, 1.246969, 2212.221469, 1152.190691)" id="g372" style="">
        <path id="path374" style="fill:#171b79;fill-opacity:1;fill-rule:nonzero;stroke:none" d="m 13552.9,10536.3 c -439.2,294.3 -576.6,671.1 -563.4,1044.2 6.5,-4.4 12.9,-8.7 19.3,-12.9 -11.2,-417.1 173.6,-757.3 549.5,-1011.3 831.6,52.7 1865.9,643.8 2500.3,1134.9 14.8,11.4 29.1,22.6 42.8,33.5 -10,-16.4 -20.2,-32.7 -30.8,-49.1 94.9,73.6 172.6,138.8 229.4,191 -376.4,-346.2 -1674.8,-1265.6 -2747.1,-1330.3"/>
      </g>
      <g transform="matrix(1.104316, 0, 0, 1.260917, 2212.221469, 1152.190325)" id="g376" style="">
        <path id="path378" style="fill:#d28ea5;fill-opacity:1;fill-rule:nonzero;stroke:none" d="m 15923.4,11595 c 48.6,79.1 91.2,158.1 126.9,237.7 102.8,67 188.5,140 249.7,210.4 -29.7,-78.1 -65.3,-147.4 -102.3,-198.8 -27.5,-37.8 -113.6,-122.1 -274.3,-249.3"/>
      </g>
      <g transform="matrix(1.106819, 0, 0, 1.263775, 2212.221224, 1152.190813)" id="g380" style="">
        <path id="path382" style="fill:#8b86b9;fill-opacity:1;fill-rule:nonzero;stroke:none" d="m 15856.9,11520.4 c 10.5,16.2 20.6,32.3 30.5,48.4 160.4,126.9 246.3,211 273.7,248.8 36.9,51.2 72.4,120.3 102,198.2 13.6,15.6 25.9,31 36.9,46.2 -35.9,-108.7 -80.8,-197 -123.3,-255.8 v 0 c -16.2,-22.3 -48,-55.6 -93.4,-97.4 -56.1,-51.5 -132.7,-115.8 -226.4,-188.4"/>
      </g>
      <g transform="matrix(1.104831, 0, 0, 1.261503, 2212.221469, 1152.190691)" id="g384" style="">
        <path id="path386" style="fill:#390075;fill-opacity:1;fill-rule:nonzero;stroke:none" d="m 16165.8,13188.1 -621.3,-107.9 518.3,359.1 c 63.2,43.8 149.8,28 193.4,-35.1 43.8,-63.1 28.1,-149.7 -35,-193.5 -17,-11.7 -36.3,-19.2 -55.4,-22.6"/>
      </g>
      <g transform="matrix(1.119172, 0, 0, 1.277876, 2212.221469, 1152.190325)" id="g388" style="">
        <path id="path390" style="fill:#390075;fill-opacity:1;fill-rule:nonzero;stroke:none" d="m 16153.6,12604.7 -558.9,-44.7 474.2,299 c 64.5,40.7 149.8,21.4 190.4,-43.1 40.7,-64.5 21.4,-149.7 -43.1,-190.4 -19.4,-12.2 -41.3,-19.1 -62.6,-20.8"/>
      </g>
      <g transform="matrix(1.122326, 0, 0, 1.281479, 2212.221469, 1152.190203)" id="g392" style="">
        <path id="path394" style="fill:#390075;fill-opacity:1;fill-rule:nonzero;stroke:none" d="m 16122.2,12011.2 -554.9,97 537.2,169.7 c 72.4,22.9 149.7,-17.3 172.6,-89.8 22.9,-72.4 -17.3,-149.7 -89.8,-172.6 -21.6,-6.9 -44.2,-7.9 -65.1,-4.3"/>
      </g>
      <g transform="matrix(1.140541, 0, 0, 1.302278, 2212.221224, 1152.190691)" id="g396" style="">
        <path id="path398" style="fill:#390075;fill-opacity:1;fill-rule:nonzero;stroke:none" d="m 12901.5,9931.36 c -52.8,0 -104.9,2.26 -156.4,6.84 -508.4,45.02 -881.7,307.5 -1109.6,780.2 -915.2,1897.4 2898.4,4142.7 3061.2,4237.4 71.8,41.7 163.8,17.3 205.5,-54.4 41.8,-71.7 17.4,-163.8 -54.3,-205.5 -37.5,-21.8 -3736.7,-2198.5 -2941.7,-3847 181.3,-375.7 464.4,-575.7 865.5,-611.3 43.2,-3.8 87.3,-5.7 132,-5.7 1098.9,-0.1 2573.9,1120.8 2710.2,1309.3 103.8,143.3 391.5,849.9 -215.2,1437.9 -89.7,86.8 -225,116.1 -345.1,74.7 l -419.6,-145 c -35.6,-12.3 -74.5,-10.8 -109.1,4.3 -17.9,7.2 -478.8,186.3 -928.8,-435.6 -48.6,-67.2 -142.6,-82.3 -209.8,-33.6 -67.3,48.7 -82.4,142.6 -33.7,209.9 500.4,691.6 1050.4,608 1231.5,555.8 l 371.3,128.3 c 229.8,79.4 479.6,24.6 652.6,-142.9 692,-670.7 461.1,-1537.6 249.5,-1830.1 -174.1,-240.6 -1726.5,-1433.39 -2956,-1433.54"/>
      </g>
      <g transform="matrix(0.95251, 0, 0, 1.087584, 2212.221469, 1152.190203)" id="g400" style="">
        <path id="path402" style="fill:#390075;fill-opacity:1;fill-rule:nonzero;stroke:none" d="m 16197.1,14877.5 c -51.5,-29.8 -105.1,-54.2 -159.4,-76.4 -54,-23 -109.4,-42.6 -165.2,-61.1 -111.4,-37.1 -226.2,-65 -341.5,-92 -115.4,-26.2 -231.7,-50.3 -349.3,-70.9 -117.9,-19.6 -236.5,-37.7 -358.5,-46.5 -14.7,-1.1 -27.5,10 -28.6,24.7 -0.7,9.5 3.7,18.1 10.7,23.4 98,73.1 199.5,137 301.6,199.4 102.4,61.2 206.1,119.1 310.6,174.7 104.9,55 210,108.9 318.6,153.8 54.2,22.6 108.9,43.9 164.9,61.9 55.6,18.7 112,35.2 170.5,46.4 99,18.9 194.7,-46 213.6,-145.1 14.9,-78.2 -22.8,-154.4 -88,-192.3"/>
      </g>
      <g transform="matrix(0.923256, 0, 0, 1.054179, 2212.221469, 1152.190203)" id="g404" style="">
        <path id="path406" style="fill:#390075;fill-opacity:1;fill-rule:nonzero;stroke:none" d="m 16060.7,12295.6 c -31,0 -62.3,8.8 -90,27.2 -443.2,295.3 -696.1,674.6 -751.9,1127.1 -120.9,982.8 743.6,1946 780.5,1986.5 60.3,66.5 163.1,71.3 229.5,10.8 66.3,-60.3 71.2,-163 10.9,-229.4 -8,-8.8 -801.6,-895.1 -698.2,-1729.2 43.8,-353.9 248.9,-655.1 609.4,-895.3 74.6,-49.8 94.9,-150.6 45.1,-225.3 -31.3,-47 -82.8,-72.4 -135.3,-72.4"/>
      </g>
      <path id="path408" style="fill: rgb(57, 0, 117); fill-opacity: 1; fill-rule: nonzero; stroke: none;" d="M 9538.78 14795.2 L 6638.08 13340.2 L 9383.91 15144.6 C 9466.19 15198.5 9571.07 15166.3 9618.47 15072.4 C 9665.81 14978.7 9637.43 14858.8 9555.31 14804.8 C 9549.9 14801.4 9544.28 14798 9538.78 14795.2"/>
      <path id="path410" style="fill: rgb(57, 0, 117); fill-opacity: 1; fill-rule: nonzero; stroke: none;" d="M 12368.8 13775.3 L 9468.23 12320.2 L 12214.1 14124.7 C 12296.3 14178.7 12401.3 14146.3 12448.6 14052.6 C 12495.8 13958.8 12467.6 13838.8 12385.5 13785 C 12380.1 13781.3 12374.4 13778.1 12368.8 13775.3"/>
      <path id="path412" style="fill: rgb(57, 0, 117); fill-opacity: 1; fill-rule: nonzero; stroke: none;" d="M 14589.5 13830 L 10608.2 11751.2 L 14434.9 14179.5 C 14517.6 14231.9 14622.3 14197.9 14668.1 14103.4 C 14714.2 14009 14684.4 13889.6 14601.5 13837 C 14597.7 13834.7 14593.4 13832.1 14589.5 13830"/>
      <path id="path414" style="fill: rgb(57, 0, 117); fill-opacity: 1; fill-rule: nonzero; stroke: none;" d="M 14124.5 10815.4 L 10143.2 8736.13 L 13969.8 11164.5 C 14052.5 11217.2 14157 11183.2 14202.9 11088.6 C 14249 10994 14219.2 10874.6 14136.6 10822.1 C 14132.6 10819.8 14128.3 10817.3 14124.5 10815.4"/>
      <path id="path416" style="fill: rgb(57, 0, 117); fill-opacity: 1; fill-rule: nonzero; stroke: none;" d="M 15893.9 9817.26 L 11912.5 7738.35 L 15739.2 10166.7 C 15822 10219.3 15926.4 10185.3 15972.4 10090.8 C 16018.4 9996.06 15988.7 9876.76 15905.9 9824.26 C 15902.1 9821.86 15897.8 9819.46 15893.9 9817.26"/>
    </g>
  </g>
</svg>